<svg width="48" height="35" viewBox="0 0 48 35" fill="none" xmlns="http://www.w3.org/2000/svg">
<path d="M25.805 25.2865L25.5563 25.4118C25.8717 25.5896 26.1329 25.8498 26.3121 26.1644C26.4912 26.4791 26.5816 26.8365 26.5735 27.1985C26.5655 27.5604 26.4593 27.9135 26.2663 28.2198C26.0733 28.5262 25.8008 28.7745 25.4778 28.9381C25.1548 29.1017 24.7935 29.1746 24.4323 29.1489C24.0711 29.1233 23.7237 29 23.4271 28.7924C23.1304 28.5847 22.8957 28.3005 22.748 27.9699C22.6003 27.6393 22.5451 27.2748 22.5883 26.9153L20.6806 17.6223L25.805 25.2865Z" fill="#007BFC" stroke="#007BFC" stroke-width="2" stroke-linecap="round" stroke-linejoin="round"/>
<path d="M3.89649 32.9274C2.40784 29.5789 1.7795 25.9115 2.06851 22.2585C2.35753 18.6054 3.55474 15.0824 5.55139 12.0097C7.54805 8.93697 10.2809 6.41185 13.5015 4.66376C16.7221 2.91566 20.3285 2 23.993 2C27.6575 2 31.2639 2.91566 34.4845 4.66376C37.7051 6.41185 40.4379 8.93697 42.4346 12.0097C44.4313 15.0824 45.6285 18.6054 45.9175 22.2585C46.2065 25.9115 45.5781 29.5789 44.0895 32.9274" stroke="#E6E9EB" stroke-width="4" stroke-linecap="round" stroke-linejoin="round"/>
<path d="M3.89649 32.9274C2.40784 29.5789 1.7795 25.9115 2.06851 22.2585C2.35753 18.6054 3.55474 15.0824 5.55139 12.0097C7.54805 8.93697 10.2809 6.41185 13.5015 4.66376C16.7221 2.91566 20.3285 2 23.993 2C27.6575 2 31.2639 2.91566 34.4845 4.66376C37.7051 6.41185 40.4379 8.93697 42.4346 12.0097C44.4313 15.0824 45.6285 18.6054 45.9175 22.2585C46.2065 25.9115 45.5781 29.5789 44.0895 32.9274" stroke="#007BFC" stroke-width="4" stroke-linecap="round" stroke-linejoin="round"/>
<path d="M3.89649 32.9274C2.40784 29.5789 1.7795 25.9115 2.06851 22.2585C2.35753 18.6054 3.55474 15.0824 5.55139 12.0097C7.54805 8.93697 10.2809 6.41185 13.5015 4.66376C16.7221 2.91566 20.3285 2 23.993 2C27.6575 2 31.2639 2.91566 34.4845 4.66376C37.7051 6.41185 40.4379 8.93697 42.4346 12.0097C44.4313 15.0824 45.6285 18.6054 45.9175 22.2585C46.2065 25.9115 45.5781 29.5789 44.0895 32.9274" stroke="#E6E9EB" stroke-width="4" stroke-linecap="round" stroke-linejoin="round"/>
<path d="M3.89649 32.9274C2.40784 29.5789 1.7795 25.9115 2.06851 22.2585C2.35753 18.6054 3.55474 15.0824 5.55139 12.0097C7.54805 8.93697 10.2809 6.41185 13.5015 4.66376" stroke="#007BFC" stroke-width="4" stroke-linecap="round" stroke-linejoin="round"/>
</svg>
