<svg width="48" height="35" viewBox="0 0 48 35" fill="none" xmlns="http://www.w3.org/2000/svg">
<path d="M23.1623 26.3957L22.9265 26.2477C22.9374 26.6096 22.8499 26.9677 22.6733 27.2838C22.4967 27.5999 22.2376 27.8621 21.9236 28.0425C21.6096 28.2228 21.2526 28.3146 20.8905 28.3079C20.5285 28.3012 20.1751 28.1964 19.868 28.0046C19.5609 27.8128 19.3116 27.5412 19.1467 27.2189C18.9819 26.8965 18.9076 26.5354 18.9319 26.1742C18.9561 25.8129 19.078 25.465 19.2845 25.1676C19.491 24.8701 19.7744 24.6344 20.1045 24.4854L27.0708 18.0457L23.1623 26.3957Z" fill="#007BFC" stroke="#007BFC" stroke-width="2" stroke-linecap="round" stroke-linejoin="round"/>
<path d="M3.89649 32.9274C2.40784 29.5789 1.7795 25.9115 2.06851 22.2585C2.35753 18.6054 3.55474 15.0824 5.55139 12.0097C7.54805 8.93697 10.2809 6.41185 13.5015 4.66376C16.7221 2.91566 20.3285 2 23.993 2C27.6575 2 31.2639 2.91566 34.4845 4.66376C37.7051 6.41185 40.4379 8.93697 42.4346 12.0097C44.4313 15.0824 45.6285 18.6054 45.9175 22.2585C46.2065 25.9115 45.5781 29.5789 44.0895 32.9274" stroke="#E6E9EB" stroke-width="4" stroke-linecap="round" stroke-linejoin="round"/>
<path d="M3.89649 32.9274C2.40784 29.5789 1.7795 25.9115 2.06851 22.2585C2.35753 18.6054 3.55474 15.0824 5.55139 12.0097C7.54805 8.93697 10.2809 6.41185 13.5015 4.66376C16.7221 2.91566 20.3285 2 23.993 2C27.6575 2 31.2639 2.91566 34.4845 4.66376C37.7051 6.41185 40.4379 8.93697 42.4346 12.0097C44.4313 15.0824 45.6285 18.6054 45.9175 22.2585C46.2065 25.9115 45.5781 29.5789 44.0895 32.9274" stroke="#007BFC" stroke-width="4" stroke-linecap="round" stroke-linejoin="round"/>
<path d="M3.89649 32.9274C2.40784 29.5789 1.7795 25.9115 2.06851 22.2585C2.35753 18.6054 3.55474 15.0824 5.55139 12.0097C7.54805 8.93697 10.2809 6.41185 13.5015 4.66376C16.7221 2.91566 20.3285 2 23.993 2C27.6575 2 31.2639 2.91566 34.4845 4.66376C37.7051 6.41185 40.4379 8.93697 42.4346 12.0097C44.4313 15.0824 45.6285 18.6054 45.9175 22.2585C46.2065 25.9115 45.5781 29.5789 44.0895 32.9274" stroke="#E6E9EB" stroke-width="4" stroke-linecap="round" stroke-linejoin="round"/>
<path d="M3.89649 32.9274C2.40784 29.5789 1.7795 25.9115 2.06851 22.2585C2.35753 18.6054 3.55474 15.0824 5.55139 12.0097C7.54805 8.93697 10.2809 6.41185 13.5015 4.66376C16.7221 2.91566 20.3285 2 23.993 2C27.6575 2 31.2639 2.91566 34.4845 4.66376" stroke="#007BFC" stroke-width="4" stroke-linecap="round" stroke-linejoin="round"/>
</svg>
