<svg xmlns:dc="http://purl.org/dc/elements/1.1/" xmlns:cc="http://creativecommons.org/ns#" xmlns:rdf="http://www.w3.org/1999/02/22-rdf-syntax-ns#" xmlns:svg="http://www.w3.org/2000/svg" xmlns="http://www.w3.org/2000/svg" viewBox="0 0 72 72" width="72" height="72" fill="none" version="1.1" id="svg230">
  <metadata id="metadata236">
    <rdf:rdf>
      <cc:work rdf:about="">
        <dc:format>image/svg+xml</dc:format>
        <dc:type rdf:resource="http://purl.org/dc/dcmitype/StillImage"></dc:type>
        <dc:title></dc:title>
      </cc:work>
    </rdf:rdf>
  </metadata>
  <defs id="defs234"></defs>
  <path d="m 65.359941,13.442173 c 1.474285,0 2.395714,1.201751 2.055693,2.68642 l -9.497205,41.47987 c -0.337425,1.48467 -1.809116,2.686421 -3.283401,2.686421 H 7.3177084 c -1.4742875,0 -2.3957165,-1.201751 -2.0556958,-2.686421 l 9.4972054,-41.47987 c 0.337424,-1.484669 1.809116,-2.68642 3.283403,-2.68642 z m -21.737937,24.25564 c 0.651489,-1.022655 0.589197,-2.348993 -0.233601,-3.226298 L 28.868762,19.025253 c -0.986318,-1.051208 -2.691611,-1.056398 -3.805113,-0.01025 -1.1135,1.046016 -1.214727,2.743523 -0.228421,3.792135 l 12.100567,12.874046 v 0.285515 L 17.676633,49.912718 c -1.168009,0.848752 -1.38344,2.535875 -0.485371,3.771368 0.898068,1.235494 2.572213,1.549558 3.737627,0.700806 L 42.28787,39.047644 c 0.726759,-0.51133 1.13686,-0.949981 1.334123,-1.3497 z M 36.36478,49.115746 a 2.4086929,2.4086929 0 0 0 -2.424266,2.395713 c 0,1.323745 1.08495,2.395717 2.424266,2.395717 h 11.506181 a 2.4086929,2.4086929 0 0 0 2.424266,-2.395717 2.4086929,2.4086929 0 0 0 -2.424266,-2.395713 z" id="path117" style="fill:#3377ba;stroke-width:2.59557"></path>
</svg>