<svg width="72" height="72" viewBox="0 0 72 72" fill="none" xmlns="http://www.w3.org/2000/svg">
<g clip-path="url(#clip0)">
<path d="M15.8401 25.8689H27.8149L25.9622 32.969C25.7075 33.9163 25.1491 34.7539 24.3726 35.3534C23.6005 35.9522 22.6473 36.27 21.6704 36.2541H16.1051C14.8932 36.2374 13.7111 36.6293 12.7493 37.3668C11.7639 38.1296 11.049 39.1881 10.7093 40.387C10.464 41.268 10.4367 42.1954 10.6299 43.0893C10.8073 43.9046 11.1572 44.6724 11.656 45.3412C12.1614 46.0037 12.8146 46.5389 13.5635 46.9043C14.3536 47.2959 15.225 47.4956 16.1068 47.4871H19.4979C19.8008 47.4819 20.1005 47.5488 20.3723 47.6825C20.6441 47.8161 20.8802 48.0125 21.061 48.2554C21.2592 48.49 21.3953 48.7706 21.457 49.0714C21.5187 49.3723 21.504 49.6838 21.4143 49.9775L19.2948 57.8194H15.5858C13.1445 57.8437 10.7343 57.2707 8.56518 56.1503C6.48212 55.0871 4.66003 53.5762 3.22951 51.726C1.81118 49.8776 0.824486 47.7353 0.341777 45.456C-0.170328 43.0614 -0.10616 40.5795 0.528994 38.2146L0.740937 37.4198C1.63723 34.1001 3.60096 31.1675 6.32918 29.0745C7.6671 28.0601 9.15744 27.2643 10.7447 26.7167C12.3832 26.1486 14.106 25.8619 15.8401 25.8689V25.8689Z" fill="#FF6C2C"></path>
<path d="M21.8807 57.818L32.3207 18.7144C32.5754 17.7671 33.1338 16.9295 33.9102 16.3301C34.6816 15.7311 35.6343 15.4133 36.6107 15.4293H47.6866C50.1278 15.4052 52.538 15.9781 54.7072 17.0984C56.7881 18.16 58.6069 19.6711 60.0319 21.5223C61.4569 23.3734 62.4525 25.5183 62.9465 27.8015C63.4768 30.1956 63.404 32.6839 62.7345 35.0429L62.5226 35.8377C62.0759 37.5056 61.36 39.0895 60.4032 40.5269C58.9874 42.6581 57.0655 44.4052 54.8094 45.6118C52.5532 46.8185 50.0332 47.4472 47.4746 47.4416H37.8842L39.7917 40.2885C40.0567 39.3605 40.6142 38.5429 41.3812 37.9571C42.1533 37.3583 43.1065 37.0405 44.0835 37.0564H47.1567C48.3944 37.0577 49.5974 36.6471 50.576 35.8892C51.5545 35.1313 52.253 34.0692 52.5613 32.8705C52.8051 32.0221 52.8294 31.1257 52.6319 30.2654C52.4523 29.4495 52.1 28.6816 51.5987 28.0135C51.0892 27.3481 50.4375 26.805 49.6912 26.4239C48.9087 26.0171 48.0386 25.8079 47.1567 25.8145H41.2223L33.4863 54.5858C33.2213 55.5138 32.6638 56.3315 31.8968 56.9172C31.1419 57.5102 30.2074 57.828 29.2475 57.818H21.8807Z" fill="#FF6C2C"></path>
<path d="M63.7909 21.1375H63.1356V16.0862H61.3517V15.5051H65.5747V16.0862H63.7909V21.1375Z" fill="#FF6C2C"></path>
<path d="M68.9145 21.1375L67.0035 16.1374H66.9735C67.0088 16.5331 67.0265 17.004 67.0265 17.5504V21.1375H66.4224V15.5051H67.408L69.1918 20.1502H69.2236L71.0216 15.5051H72.0001V21.1375H71.3536V17.508C71.3536 17.0912 71.3731 16.6408 71.4084 16.1516H71.3784L69.4426 21.1375H68.9145Z" fill="#FF6C2C"></path>
</g>
<defs>
<clipPath id="clip0">
<rect width="72" height="72" fill="white"></rect>
</clipPath>
</defs>
</svg>