<svg class="icon-sm" xmlns="http://www.w3.org/2000/svg" x="0px" y="0px" viewBox="0 0 48 48" alt="Vultr control panel">
  <style type="text/css">
    .icon-sm .fill-gradient {
      fill: #cadefe;
      stroke: #b2b9ce;
      stroke-width: 1;
    }

    .icon-sm .fill-primary.stroke-primary {
      stroke-width: 1;
    }

    .icon-sm .stroke-primary,
    .icon-sm .stroke-primary-l {
      stroke: #007bfc;
    }

    .icon-sm .fill-primary {
      fill: #007bfc;
    }

    .icon-sm .stroke-dark {
      stroke: #142149;
    }

    .icon-sm .fill-primary {
      fill: #007bfc;
    }

    .icon-sm>* {
      fill: none;
    }

    .st0 {
      fill: url(#infinite-os-combination-gradient-1);
      stroke: url(#infinite-os-combination-gradient-2);
    }

    .st1 {
      fill-rule: evenodd;
      clip-rule: evenodd;
      fill: #1062FE;
      stroke: #1062FE;
      stroke-linecap: round;
      stroke-linejoin: round;
    }

    .st2 {
      fill: none;
      stroke: #393D45;
      stroke-linecap: round;
      stroke-linejoin: round;
    }

    .st3 {
      fill-rule: evenodd;
      clip-rule: evenodd;
      fill: #1062FE;
    }
  </style>
  <path class="stroke-primary stroke-1-5" d="M29.3,10l1.7,7.1l-8.8-0.3l1.1,4.7 M26.9,11.4l-0.2,0.2l2.2-2.1l3.7,1.2"></path>
  <polygon class="fill-gradient" points="0.5,33.7 24.5,47.1 47.3,33.8 39,28.8 24.5,36.8 10.1,28.7"></polygon>
  <path class="fill-primary stroke-primary" d="M0.5,24.2l24,13.4l22.9-13.4c-0.1-0.1-6.9-4.2-7-4.2c0,0-11,6.1-15.8,8.9c0,0-16-9-16-9C8.5,19.9,0.6,24.1,0.5,24.2z"></path>
  <polygon class="stroke-dark" points="0.7,14.6 24.5,28.4 47.5,14.7 24.5,0.9 "></polygon>
  <g>
    <path class="fill-primary" d="M12.2,13.8c0.6,0.3,0.5,0.9-0.2,1.3c-0.7,0.4-1.6,0.4-2.2,0.1c-0.6-0.3-0.5-0.9,0.2-1.3S11.6,13.4,12.2,13.8z"></path>
    <path class="fill-primary" d="M15.5,11.8c0.6,0.3,0.5,0.9-0.2,1.3c-0.7,0.4-1.6,0.4-2.2,0.1s-0.5-0.9,0.2-1.3C14,11.5,15,11.5,15.5,11.8z"></path>
    <path class="fill-primary" d="M18.9,9.8c0.6,0.3,0.5,0.9-0.2,1.3c-0.7,0.4-1.6,0.4-2.2,0.1c-0.6-0.3-0.5-0.9,0.2-1.3C17.4,9.6,18.4,9.5,18.9,9.8z"></path>
  </g>
</svg>