<svg width="72" height="72" viewBox="0 0 72 72" fill="none" xmlns="http://www.w3.org/2000/svg">
<g clip-path="url(#clip0)">
<path d="M20.049 51.1598C20.1542 50.9492 20.2595 50.6333 20.1542 50.4228C20.049 50.0016 19.8384 50.1069 19.4172 50.3175C17.9432 51.2651 16.2586 51.6862 14.574 52.1074C12.5736 52.5285 10.5731 52.5285 8.57269 52.3179C8.25683 52.3179 7.62511 52.0021 7.51982 51.7915C5.62466 49.2646 4.78236 46.3166 4.15064 43.2633C3.72949 41.2628 3.51892 39.0518 3.51892 36.9461C3.51892 35.8932 4.25593 35.472 5.3088 35.472C19.6278 35.472 34.0521 35.472 48.3711 35.472C50.2663 35.472 51.8456 34.9456 53.5302 34.2086C53.6355 34.2086 53.6355 34.1033 53.7407 34.1033C55.0042 33.4716 55.0042 33.6822 54.2672 32.4187C53.0037 30.313 52.6879 27.9967 53.3196 25.6804C53.6355 24.6275 54.0566 23.5746 54.583 22.6271C54.6883 22.4165 55.1095 22.3112 55.4253 22.5218C57.5311 24.1011 59.2157 25.8909 59.5315 28.5231C59.6368 29.6813 59.4262 29.7866 60.5844 29.576C62.9007 29.1548 65.1117 29.1548 67.3227 30.1024C68.0598 30.4183 68.2703 30.4183 67.9545 31.1553C66.691 33.4716 64.48 34.9456 61.8478 35.472C60.9002 35.6826 59.8474 35.5773 58.8998 35.5773C58.5839 35.5773 58.4786 35.5773 58.2681 35.8932C57.1099 38.8412 55.7412 41.7893 53.9513 44.4214C51.7403 47.8959 49.0028 50.9492 45.5284 53.2655C42.0539 55.5818 38.3689 56.8453 34.368 57.6876C32.5781 58.0034 30.7882 58.214 28.9983 58.214C27.7349 57.6876 26.3662 56.9506 25.3133 56.2135C23.2076 54.9501 21.4177 53.3708 20.049 51.1598ZM23.9446 44.3161C22.6811 44.3161 21.7335 45.2637 21.7335 46.5272C21.7335 47.7906 22.6811 48.7382 23.9446 48.7382C25.1027 48.7382 26.1556 47.7906 26.1556 46.5272C26.1556 45.2637 25.1027 44.3161 23.9446 44.3161Z" fill="#2495EC"></path>
<path d="M19.6279 27.3641C20.4702 27.3641 21.4178 27.3641 22.2601 27.3641C22.8918 27.3641 23.4182 27.4694 23.5235 28.1011C23.6288 29.6804 23.6288 31.9968 23.3129 33.4708C23.2076 33.9972 22.9971 34.3131 22.4706 34.3131C20.6808 34.3131 18.8909 34.3131 17.101 34.3131C16.5746 34.3131 15.9429 33.9972 15.9429 33.4708C15.9429 31.9968 15.8376 30.4175 15.8376 28.9434C15.8376 28.3117 16.364 27.5747 17.101 27.5747C17.9433 27.3641 18.7856 27.3641 19.6279 27.3641Z" fill="#2493EA"></path>
<path d="M28.0507 27.7856C28.893 27.7856 29.8406 27.7856 30.7882 27.7856C31.4199 27.7856 31.6305 27.9962 31.6305 28.6279C31.6305 30.102 31.6305 32.2077 31.6305 33.6817C31.6305 34.2081 31.3146 34.524 30.7882 34.524C28.9983 34.524 27.2084 34.524 25.4186 34.524C24.7868 34.524 23.9445 34.2081 23.9445 33.5764C23.9445 32.1024 23.9445 30.102 23.9445 28.5227C23.9445 27.7856 24.7868 27.5751 25.5239 27.5751C26.2609 27.7856 27.2084 27.7856 28.0507 27.7856Z" fill="#2493EA"></path>
<path d="M28.0508 20.3102C28.8931 20.3102 29.946 20.3102 30.7883 20.3102C31.42 20.3102 31.6306 20.5208 31.6306 21.1525C31.6306 22.7318 31.6306 24.2058 31.6306 25.7851C31.6306 26.4168 31.42 26.6274 30.7883 26.6274C28.8931 26.6274 27.1033 26.6274 25.2081 26.6274C24.6817 26.6274 24.3658 26.3115 24.3658 25.7851C24.3658 24.2058 24.3658 22.6265 24.3658 21.1525C24.3658 20.626 24.6817 20.3102 25.2081 20.3102C26.3662 20.3102 27.2085 20.3102 28.0508 20.3102Z" fill="#2493EA"></path>
<path d="M36.1579 26.8379C35.3156 26.8379 33.9469 26.8379 33.1046 26.8379C32.4729 26.8379 32.3676 26.4167 32.3676 25.785C32.3676 24.2057 32.3676 22.7317 32.3676 21.1524C32.3676 20.5207 32.5782 20.3101 33.2099 20.3101C34.9998 20.3101 37.1055 20.2048 38.8954 20.2048C39.5271 20.2048 39.7377 20.626 39.7377 21.2577C39.7377 22.7317 39.7377 24.311 39.7377 25.785C39.7377 26.522 39.5271 26.9432 38.7901 26.9432C37.8425 26.8379 37.0002 26.8379 36.1579 26.8379Z" fill="#2495EB"></path>
<path d="M36.158 12.7302C37.0003 12.7302 37.8426 12.7302 38.6849 12.7302C39.4219 12.7302 39.6325 12.9407 39.6325 13.5725C39.6325 15.0465 39.6325 17.0469 39.6325 18.5209C39.6325 19.1527 39.4219 19.3632 38.7902 19.3632C37.0003 19.3632 35.3157 19.3632 33.5258 19.3632C32.8941 19.3632 32.6835 19.1527 32.6835 18.5209C32.6835 16.9416 32.6835 14.9412 32.6835 13.4672C32.6835 12.8355 32.8941 12.6249 33.5258 12.6249C34.3681 12.7302 35.3157 12.7302 36.158 12.7302Z" fill="#2495EB"></path>
<path d="M36.158 27.8915C37.0003 27.8915 37.8426 27.8915 38.6849 27.8915C39.4219 27.8915 39.6325 28.1021 39.6325 28.7338C39.6325 30.2078 39.6325 31.7871 39.6325 33.2611C39.6325 33.9981 39.4219 34.2087 38.6849 34.2087C37.0003 34.2087 35.3157 34.2087 33.6311 34.2087C32.8941 34.2087 32.6835 33.9981 32.6835 33.2611C32.6835 31.7871 32.6835 30.2078 32.6835 28.7338C32.6835 28.1021 32.8941 27.8915 33.5258 27.8915C34.3681 27.8915 35.3157 27.8915 36.158 27.8915Z" fill="#2495EB"></path>
<path d="M44.3703 27.8915C45.2126 27.8915 46.0549 27.8915 46.8972 27.8915C47.6342 27.8915 47.8448 28.1021 47.8448 28.7338C47.8448 30.2078 47.8448 31.7871 47.8448 33.2611C47.8448 33.9981 47.6342 34.2087 46.8972 34.2087C45.2126 34.2087 43.528 34.2087 41.8434 34.2087C41.1064 34.2087 40.8958 33.9981 40.8958 33.2611C40.8958 31.7871 40.8958 30.2078 40.8958 28.7338C40.8958 28.1021 41.1064 27.8915 41.7381 27.8915C42.6857 27.8915 43.528 27.8915 44.3703 27.8915Z" fill="#2495EB"></path>
<path d="M23.9447 44.3157C25.2081 44.3157 26.1557 45.2633 26.1557 46.5267C26.1557 47.6849 25.2081 48.7377 23.9447 48.7377C22.6812 48.7377 21.7336 47.7901 21.7336 46.5267C21.7336 45.2633 22.6812 44.3157 23.9447 44.3157ZM25.1028 46.2108C24.4711 46.3161 24.0499 46.1056 24.0499 45.6844C24.1552 45.158 23.8394 45.2633 23.5235 45.2633C22.8918 45.4738 22.4706 46.0003 22.5759 46.7373C22.6812 47.369 23.3129 47.7901 23.9447 47.6849C24.7869 47.6849 25.2081 47.0531 25.1028 46.2108Z" fill="#FDFDFE"></path>
<path d="M18.1538 31.0499C18.1538 31.5763 18.1538 31.9975 18.1538 32.5239C18.1538 32.7345 18.1538 32.8398 17.9433 32.8398C17.7327 32.8398 17.6274 32.7345 17.6274 32.5239C17.6274 31.5763 17.6274 30.5235 17.6274 29.5759C17.6274 29.3653 17.6274 29.26 17.838 29.26C18.0486 29.26 18.1538 29.3653 18.1538 29.5759C18.1538 29.997 18.1538 30.5235 18.1538 31.0499Z" fill="#2A56A2"></path>
<path d="M21.3124 30.9444C21.3124 30.418 21.3124 29.9968 21.3124 29.4704C21.3124 29.2598 21.4177 29.1545 21.6282 29.1545C21.8388 29.1545 21.8388 29.2598 21.8388 29.4704C21.8388 30.418 21.8388 31.4708 21.8388 32.4184C21.8388 32.629 21.7335 32.7343 21.523 32.7343C21.3124 32.7343 21.3124 32.629 21.3124 32.4184C21.3124 31.9973 21.3124 31.4708 21.3124 30.9444Z" fill="#2A56A2"></path>
<path d="M20.0491 31.0495C20.0491 31.5759 20.0491 31.9971 20.0491 32.5235C20.0491 32.7341 20.0491 32.9447 19.7332 32.8394C19.4174 32.8394 19.4174 32.6288 19.4174 32.4182C19.4174 31.4707 19.4174 30.4178 19.4174 29.4702C19.4174 29.2596 19.4174 29.0491 19.7332 29.0491C20.0491 29.0491 20.0491 29.2596 20.0491 29.4702C20.0491 30.1019 20.0491 30.5231 20.0491 31.0495Z" fill="#2A56A2"></path>
<path d="M25.8398 30.9442C25.8398 30.4178 25.8398 29.9967 25.8398 29.4702C25.8398 29.2596 25.9451 29.0491 26.1557 29.0491C26.3663 29.0491 26.4716 29.2596 26.4716 29.4702C26.4716 30.4178 26.4716 31.4707 26.4716 32.4182C26.4716 32.6288 26.3663 32.8394 26.1557 32.8394C25.8398 32.8394 25.8398 32.6288 25.8398 32.4182C25.8398 31.9971 25.8398 31.4707 25.8398 30.9442Z" fill="#2A56A2"></path>
<path d="M28.3667 30.9442C28.3667 31.4707 28.3667 31.8918 28.3667 32.4183C28.3667 32.7341 28.2614 32.9447 27.9455 32.8394C27.6297 32.8394 27.6297 32.6288 27.6297 32.4183C27.6297 31.4707 27.6297 30.5231 27.6297 29.5755C27.6297 29.3649 27.6297 29.0491 27.9455 29.0491C28.2614 29.0491 28.2614 29.3649 28.2614 29.5755C28.3667 30.1019 28.3667 30.5231 28.3667 30.9442Z" fill="#2A56A2"></path>
<path d="M29.6301 30.9442C29.6301 30.4178 29.6301 29.9967 29.6301 29.4702C29.6301 29.2596 29.6301 29.0491 29.946 29.0491C30.2619 29.0491 30.2619 29.2596 30.2619 29.4702C30.2619 30.4178 30.2619 31.3654 30.2619 32.313C30.2619 32.5235 30.2619 32.7341 29.946 32.7341C29.6301 32.7341 29.6301 32.5235 29.6301 32.313C29.6301 31.8918 29.6301 31.4707 29.6301 30.9442Z" fill="#2A56A2"></path>
<path d="M38.369 23.4687C38.369 23.9951 38.369 24.4163 38.369 24.9427C38.369 25.1533 38.2637 25.3639 38.0531 25.3639C37.7372 25.3639 37.7372 25.1533 37.7372 24.9427C37.7372 23.9951 37.7372 23.0476 37.7372 22.1C37.7372 21.8894 37.7372 21.6788 38.0531 21.6788C38.369 21.6788 38.369 21.8894 38.369 22.1C38.369 22.5211 38.369 23.0476 38.369 23.4687Z" fill="#2A56A2"></path>
<path d="M35.8421 23.4687C35.8421 23.0476 35.8421 22.5211 35.8421 22.1C35.8421 21.8894 35.8421 21.6788 36.158 21.6788C36.4738 21.6788 36.4738 21.8894 36.4738 22.1C36.4738 23.0476 36.4738 23.9951 36.4738 24.9427C36.4738 25.1533 36.4738 25.3639 36.158 25.3639C35.8421 25.3639 35.8421 25.1533 35.8421 24.9427C35.8421 24.4163 35.8421 23.8899 35.8421 23.4687Z" fill="#2A56A2"></path>
<path d="M33.947 23.3632C33.947 22.9421 33.947 22.4157 33.947 21.9945C33.947 21.7839 33.947 21.5734 34.2628 21.5734C34.5787 21.5734 34.5787 21.6787 34.5787 21.9945C34.5787 22.9421 34.5787 23.995 34.5787 24.9425C34.5787 25.1531 34.4734 25.3637 34.2628 25.3637C33.947 25.3637 33.947 25.1531 33.947 24.9425C33.947 24.4161 33.947 23.8897 33.947 23.3632Z" fill="#2A56A2"></path>
<path d="M30.2619 23.4687C30.2619 23.9951 30.2619 24.4163 30.2619 24.9427C30.2619 25.1533 30.1566 25.3639 29.946 25.3639C29.6301 25.3639 29.6301 25.1533 29.6301 24.9427C29.6301 23.9951 29.6301 23.0476 29.6301 22.1C29.6301 21.8894 29.6301 21.6788 29.946 21.6788C30.2619 21.6788 30.2619 21.8894 30.2619 22.1C30.2619 22.5211 30.2619 23.0476 30.2619 23.4687Z" fill="#2A56A2"></path>
<path d="M27.735 23.4687C27.735 23.0476 27.735 22.5211 27.735 22.1C27.735 21.8894 27.735 21.6788 28.0508 21.6788C28.3667 21.6788 28.3667 21.8894 28.3667 22.1C28.3667 23.0476 28.3667 23.9951 28.3667 24.9427C28.3667 25.1533 28.3667 25.3639 28.0508 25.3639C27.735 25.3639 27.735 25.1533 27.735 24.9427C27.735 24.4163 27.735 23.8899 27.735 23.4687Z" fill="#2A56A2"></path>
<path d="M25.8398 23.3632C25.8398 22.9421 25.8398 22.4157 25.8398 21.9945C25.8398 21.7839 25.8398 21.5734 26.1557 21.5734C26.4716 21.5734 26.4716 21.6787 26.4716 21.9945C26.4716 22.9421 26.4716 23.995 26.4716 24.9425C26.4716 25.1531 26.3663 25.3637 26.1557 25.3637C25.8398 25.3637 25.8398 25.1531 25.8398 24.9425C25.8398 24.4161 25.8398 23.8897 25.8398 23.3632Z" fill="#2A56A2"></path>
<path d="M19.7332 20.3102C20.5755 20.3102 21.6284 20.3102 22.4707 20.3102C23.1024 20.3102 23.313 20.5208 23.313 21.1525C23.313 22.7318 23.313 24.2058 23.313 25.7851C23.313 26.4168 23.1024 26.6274 22.4707 26.6274C20.5755 26.6274 18.7857 26.6274 16.8905 26.6274C16.3641 26.6274 16.0482 26.3115 16.0482 25.7851C16.0482 24.2058 16.0482 22.6265 16.0482 21.1525C16.0482 20.626 16.3641 20.3102 16.8905 20.3102C18.0487 20.3102 18.8909 20.3102 19.7332 20.3102Z" fill="#2493EA"></path>
<path d="M21.9444 23.4687C21.9444 23.9951 21.9444 24.4163 21.9444 24.9427C21.9444 25.1533 21.8391 25.3639 21.6285 25.3639C21.3127 25.3639 21.3127 25.1533 21.3127 24.9427C21.3127 23.9951 21.3127 23.0476 21.3127 22.1C21.3127 21.8894 21.3127 21.6788 21.6285 21.6788C21.9444 21.6788 21.9444 21.8894 21.9444 22.1C21.9444 22.5211 21.9444 23.0476 21.9444 23.4687Z" fill="#2A56A2"></path>
<path d="M19.4174 23.4687C19.4174 23.0476 19.4174 22.5211 19.4174 22.1C19.4174 21.8894 19.4174 21.6788 19.7332 21.6788C20.0491 21.6788 20.0491 21.8894 20.0491 22.1C20.0491 23.0476 20.0491 23.9951 20.0491 24.9427C20.0491 25.1533 20.0491 25.3639 19.7332 25.3639C19.4174 25.3639 19.4174 25.1533 19.4174 24.9427C19.4174 24.4163 19.4174 23.8899 19.4174 23.4687Z" fill="#2A56A2"></path>
<path d="M17.5222 23.3632C17.5222 22.9421 17.5222 22.4157 17.5222 21.9945C17.5222 21.7839 17.5222 21.5734 17.8381 21.5734C18.154 21.5734 18.154 21.6787 18.154 21.9945C18.154 22.9421 18.154 23.995 18.154 24.9425C18.154 25.1531 18.0487 25.3637 17.8381 25.3637C17.5222 25.3637 17.5222 25.1531 17.5222 24.9425C17.5222 24.4161 17.5222 23.8897 17.5222 23.3632Z" fill="#2A56A2"></path>
<path d="M11.8367 27.6793C12.679 27.6793 13.6266 27.8899 14.4689 27.8899C15.1006 27.8899 15.3112 28.1005 15.3112 28.7322C15.3112 30.3115 15.3112 31.7855 15.3112 33.3648C15.3112 33.9965 15.1006 34.2071 14.4689 34.2071C12.5737 34.2071 10.7838 34.2071 8.88867 34.2071C8.36223 34.2071 8.04637 33.8912 8.04637 33.3648C8.04637 31.7855 8.04637 30.2062 8.04637 28.7322C8.04637 28.2058 8.36223 27.8899 8.88867 27.8899C10.0468 27.8899 10.9944 27.6793 11.8367 27.6793Z" fill="#2493EA"></path>
<path d="M13.8371 31.0499C13.8371 31.5763 13.8371 31.9975 13.8371 32.5239C13.8371 32.7345 13.7319 32.945 13.5213 32.945C13.2054 32.945 13.2054 32.7345 13.2054 32.5239C13.2054 31.5763 13.2054 30.6287 13.2054 29.6812C13.2054 29.4706 13.2054 29.26 13.5213 29.26C13.8371 29.26 13.8371 29.4706 13.8371 29.6812C13.8371 30.1023 13.8371 30.6287 13.8371 31.0499Z" fill="#2A56A2"></path>
<path d="M11.3103 31.0499C11.3103 30.6287 11.3103 30.1023 11.3103 29.6812C11.3103 29.4706 11.3103 29.26 11.6261 29.26C11.942 29.26 11.942 29.4706 11.942 29.6812C11.942 30.6287 11.942 31.5763 11.942 32.5239C11.942 32.7345 11.942 32.945 11.6261 32.945C11.3103 32.945 11.3103 32.7345 11.3103 32.5239C11.3103 31.9975 11.3103 31.471 11.3103 31.0499Z" fill="#2A56A2"></path>
<path d="M9.41513 30.9444C9.41513 30.5233 9.41513 29.9968 9.41513 29.5757C9.41513 29.3651 9.41513 29.1545 9.73099 29.1545C10.0469 29.1545 10.0469 29.2598 10.0469 29.5757C10.0469 30.5233 10.0469 31.5761 10.0469 32.5237C10.0469 32.7343 9.94156 32.9449 9.73099 32.9449C9.41513 32.9449 9.41513 32.7343 9.41513 32.5237C9.41513 31.9973 9.41513 31.4709 9.41513 30.9444Z" fill="#2A56A2"></path>
<path d="M33.947 15.8886C33.947 15.3621 33.947 14.941 33.947 14.4146C33.947 14.204 33.947 13.9934 34.2628 13.9934C34.5787 13.9934 34.5787 14.0987 34.5787 14.4146C34.5787 15.3621 34.5787 16.415 34.5787 17.3626C34.5787 17.5732 34.4734 17.7837 34.2628 17.7837C33.947 17.7837 33.947 17.5732 33.947 17.3626C33.947 16.9414 33.947 16.415 33.947 15.8886Z" fill="#2A56A2"></path>
<path d="M35.8421 15.994C35.8421 15.4676 35.8421 15.0465 35.8421 14.52C35.8421 14.3095 35.8421 14.0989 36.158 14.0989C36.4738 14.0989 36.4738 14.2042 36.4738 14.52C36.4738 15.4676 36.4738 16.5205 36.4738 17.4681C36.4738 17.6786 36.4738 17.8892 36.158 17.8892C35.8421 17.8892 35.8421 17.6786 35.8421 17.4681C35.8421 16.9416 35.8421 16.4152 35.8421 15.994Z" fill="#2A56A2"></path>
<path d="M38.369 15.994C38.369 16.5205 38.369 16.9416 38.369 17.4681C38.369 17.6786 38.369 17.8892 38.0531 17.8892C37.7372 17.8892 37.7372 17.6786 37.7372 17.4681C37.7372 16.5205 37.7372 15.4676 37.7372 14.52C37.7372 14.3095 37.8425 14.0989 38.0531 14.0989C38.369 14.0989 38.369 14.3095 38.369 14.52C38.369 14.9412 38.369 15.4676 38.369 15.994Z" fill="#2A56A2"></path>
<path d="M36.4738 31.0497C36.4738 31.5761 36.4738 31.9973 36.4738 32.5237C36.4738 32.7343 36.4738 32.9449 36.158 32.9449C35.8421 32.9449 35.8421 32.8396 35.8421 32.5237C35.8421 31.5761 35.8421 30.5233 35.8421 29.5757C35.8421 29.3651 35.8421 29.1545 36.158 29.1545C36.4738 29.1545 36.4738 29.3651 36.4738 29.681C36.4738 30.1021 36.4738 30.5233 36.4738 31.0497Z" fill="#2A56A2"></path>
<path d="M34.5787 30.9442C34.5787 31.4707 34.5787 31.8918 34.5787 32.4182C34.5787 32.6288 34.5787 32.8394 34.2628 32.8394C33.947 32.8394 33.947 32.7341 33.947 32.4182C33.947 31.4707 33.947 30.4178 33.947 29.4702C33.947 29.2596 33.947 29.0491 34.2628 29.0491C34.5787 29.0491 34.5787 29.2596 34.5787 29.4702C34.5787 29.9967 34.5787 30.5231 34.5787 30.9442Z" fill="#2A56A2"></path>
<path d="M38.369 31.0497C38.369 31.5761 38.369 31.9973 38.369 32.5237C38.369 32.7343 38.369 32.9449 38.0531 32.9449C37.7372 32.9449 37.7372 32.8396 37.7372 32.5237C37.7372 31.5761 37.7372 30.5233 37.7372 29.5757C37.7372 29.3651 37.7372 29.1545 38.0531 29.1545C38.369 29.1545 38.369 29.3651 38.369 29.5757C38.369 29.9968 38.369 30.5233 38.369 31.0497Z" fill="#2A56A2"></path>
<path d="M42.1593 31.0497C42.1593 30.5233 42.1593 30.1021 42.1593 29.5757C42.1593 29.3651 42.2645 29.1545 42.4751 29.1545C42.791 29.1545 42.791 29.3651 42.791 29.5757C42.791 30.5233 42.791 31.5761 42.791 32.5237C42.791 32.7343 42.6857 32.8396 42.4751 32.8396C42.1593 32.8396 42.1593 32.7343 42.1593 32.5237C42.1593 31.9973 42.1593 31.4708 42.1593 31.0497Z" fill="#2A56A2"></path>
<path d="M44.6863 31.0497C44.6863 31.5761 44.6863 31.9973 44.6863 32.5237C44.6863 32.7343 44.6863 32.9449 44.3704 32.9449C44.0545 32.9449 44.0545 32.8396 44.0545 32.5237C44.0545 31.5761 44.0545 30.5233 44.0545 29.5757C44.0545 29.3651 44.0545 29.1545 44.3704 29.1545C44.6863 29.1545 44.6863 29.3651 44.6863 29.5757C44.6863 29.9968 44.6863 30.5233 44.6863 31.0497Z" fill="#2A56A2"></path>
<path d="M45.9495 30.9442C45.9495 30.4178 45.9495 29.9967 45.9495 29.4702C45.9495 29.2596 45.9495 29.0491 46.2654 29.0491C46.5813 29.0491 46.5813 29.2596 46.5813 29.4702C46.5813 30.4178 46.5813 31.4707 46.5813 32.4182C46.5813 32.6288 46.5813 32.8394 46.2654 32.8394C45.9495 32.8394 45.9495 32.7341 45.9495 32.4182C45.9495 31.9971 45.9495 31.4707 45.9495 30.9442Z" fill="#2A56A2"></path>
<path d="M22.4706 59.3716C20.3649 59.1611 18.2592 58.8452 16.2587 58.3188C11.6261 57.1606 8.15163 54.6337 5.83532 50.4223C4.25602 47.4742 3.41372 44.4209 2.88729 41.157C2.782 40.42 2.782 39.683 2.57143 38.946C2.57143 37.9984 2.57143 37.0508 2.57143 36.2085C2.67671 36.2085 2.67671 36.1032 2.67671 35.998C3.20315 34.8398 4.04544 34.2081 5.30888 34.2081C5.73003 34.2081 6.04589 34.2081 6.46704 34.2081C6.88819 34.2081 6.99347 34.1028 6.99347 33.6816C6.99347 31.8918 6.99347 30.1019 6.99347 28.312C6.99347 27.1539 7.51991 26.6274 8.67806 26.6274C10.6785 26.6274 12.679 26.6274 14.6794 26.6274C14.9953 26.6274 15.1006 26.5221 15.1006 26.2063C15.1006 24.4164 15.1006 22.6265 15.1006 20.8367C15.1006 19.5732 15.627 19.0468 16.8904 19.0468C21.5231 19.0468 26.261 19.0468 30.8936 19.0468C31.42 19.0468 31.5253 18.8362 31.5253 18.4151C31.5253 16.8358 31.5253 15.1512 31.5253 13.5719C31.5253 12.7296 31.5253 11.5714 32.4729 11.5714C34.9998 11.5714 37.4214 11.5714 39.9483 11.5714C40.7906 11.8873 41.0011 12.6243 41.0011 13.4666C41.0011 17.678 41.0011 21.8895 41.0011 26.101C41.0011 26.6274 41.1064 26.7327 41.6328 26.7327C43.6333 26.7327 45.6337 26.7327 47.6342 26.7327C48.7924 26.7327 49.3188 27.2591 49.3188 28.4173C49.3188 30.2072 49.3188 31.8918 49.3188 33.6816C49.3188 34.2081 49.4241 34.4187 49.9505 34.3134C51.1087 34.1028 52.1615 33.8922 53.2144 33.4711C53.425 33.3658 53.5303 33.2605 53.425 33.0499C51.3192 29.1543 52.0562 25.4693 54.162 21.9948C54.6884 21.0472 54.7937 21.0472 55.7413 21.6789C58.1629 23.2583 59.8475 25.4693 60.4792 28.312C60.5845 28.7332 60.7951 28.8385 61.1109 28.7332C63.1114 28.4173 65.0065 28.5226 67.007 29.049C67.9546 29.3649 68.6916 29.8913 69.4286 30.4178C69.3233 30.2072 69.3233 30.3125 69.3233 30.4178C69.218 30.4178 69.218 30.523 69.218 30.6283C67.8493 34.1028 65.2171 35.8927 61.6373 36.5244C60.9003 36.6297 60.2686 36.735 59.5316 36.6297C59.1105 36.6297 59.0052 36.735 58.8999 37.0508C57.7417 39.8936 56.373 42.7363 54.6884 45.3685C50.0558 52.2121 43.6333 56.4236 35.7368 58.3188C33.5258 58.8452 30.9989 59.2663 29.209 59.3716C27.4191 59.4769 22.4706 59.3716 22.4706 59.3716ZM20.049 51.1593C19.8385 51.1593 19.6279 51.2645 19.5226 51.3698C17.2063 52.6333 14.6794 53.3703 12.0472 53.4756C11.2049 53.4756 10.3627 53.4756 9.52036 53.4756C10.5732 54.5284 12.1525 55.5813 13.8371 56.213C16.4693 57.2659 19.2067 57.687 22.0495 58.0029C24.2605 58.2135 26.5768 58.2135 28.7879 58.0029C30.5777 57.8976 32.2623 57.687 34.0522 57.3712C38.0531 56.5289 41.8434 55.1602 45.3179 52.8439C48.7924 50.6328 51.5298 47.6848 53.7408 44.2103C55.4254 41.5782 56.7942 38.7354 57.9523 35.7874C58.0576 35.4715 58.2682 35.3662 58.6893 35.3662C59.6369 35.3662 60.6898 35.4715 61.6373 35.2609C64.2695 34.7345 66.27 33.4711 67.6387 31.1548C68.0598 30.523 67.9546 30.4178 67.2176 30.1019C65.0065 29.1543 62.7955 29.2596 60.4792 29.5755C59.321 29.786 59.4263 29.786 59.2158 28.6279C58.8999 25.9957 57.4259 23.9953 55.3201 22.5212C55.1096 22.3107 55.0043 22.416 54.7937 22.6265C54.2673 23.5741 53.8461 24.627 53.5303 25.6798C52.8985 27.9962 53.1091 30.2072 54.3726 32.3129C55.1096 33.4711 55.1096 33.5764 53.8461 34.2081C53.7408 34.2081 53.7408 34.3134 53.6355 34.3134C51.951 35.0504 50.1611 35.4715 48.2659 35.4715C33.9469 35.4715 19.5226 35.4715 5.2036 35.4715C4.15073 35.4715 3.62429 35.998 3.62429 37.0508C3.62429 39.1566 3.83487 41.2623 4.25602 43.2627C4.88774 46.3161 5.94061 49.1588 7.83577 51.791C8.04634 51.8963 8.25692 52.2121 8.57278 52.2121C10.5732 52.4227 12.4684 52.4227 14.4688 52.0016C16.1534 51.5804 17.838 51.054 19.312 50.1064C19.7332 49.8958 20.1543 50.0011 20.2596 50.4223C20.3649 50.7381 20.1543 50.9487 20.049 51.1593ZM19.7332 20.3102C18.8909 20.3102 17.9433 20.3102 17.101 20.3102C16.5746 20.3102 16.2587 20.5208 16.2587 21.1525C16.2587 22.7318 16.2587 24.3111 16.2587 25.7851C16.2587 26.4169 16.4693 26.6274 17.101 26.6274C18.8909 26.6274 20.5755 26.6274 22.3654 26.6274C22.9971 26.6274 23.3129 26.3116 23.3129 25.7851C23.3129 24.3111 23.3129 22.7318 23.3129 21.2578C23.3129 20.6261 22.9971 20.3102 22.4706 20.3102C21.9442 20.3102 20.5755 20.3102 19.7332 20.3102ZM19.7332 27.8909C18.8909 27.8909 17.9433 27.8909 17.101 27.8909C16.4693 27.8909 16.1534 28.1014 16.1534 28.7332C16.1534 30.2072 16.1534 31.7865 16.1534 33.2605C16.1534 33.7869 16.4693 34.1028 16.9957 34.1028C18.7856 34.1028 20.5755 34.1028 22.3654 34.1028C22.8918 34.1028 23.2076 33.7869 23.2076 33.2605C23.2076 31.6812 23.2076 30.1019 23.2076 28.5226C23.2076 27.8909 22.3654 27.7856 22.3654 27.7856C22.3654 27.7856 20.6808 27.8909 19.7332 27.8909ZM27.9456 27.8909C27.1033 27.8909 26.261 27.8909 25.4187 27.8909C24.6817 27.8909 24.4711 28.1014 24.4711 28.8385C24.4711 30.3125 24.4711 31.7865 24.4711 33.3658C24.4711 33.9975 24.787 34.3134 25.3134 34.3134C27.1033 34.3134 28.7879 34.3134 30.5777 34.3134C31.2094 34.3134 31.42 33.9975 31.42 33.4711C31.42 31.9971 31.42 30.4178 31.42 28.9437C31.42 28.312 31.42 27.8909 30.683 27.8909C30.0513 27.8909 28.8931 27.8909 27.9456 27.8909ZM11.6261 27.8909C10.7838 27.8909 9.94151 27.8909 9.09921 27.8909C8.3622 27.8909 8.15163 28.1014 8.15163 28.8385C8.15163 30.3125 8.15163 31.7865 8.15163 33.2605C8.15163 33.9975 8.46749 34.2081 9.2045 34.2081C10.8891 34.2081 12.4684 34.2081 14.153 34.2081C14.89 34.2081 15.2058 33.9975 15.2058 33.2605C15.2058 31.7865 15.2058 30.3125 15.2058 28.8385C15.2058 28.2067 14.9953 27.8909 14.3636 27.8909C13.7318 27.8909 12.4684 27.8909 11.6261 27.8909ZM27.9456 20.3102C27.1033 20.3102 26.1557 20.3102 25.3134 20.3102C24.787 20.3102 24.4711 20.6261 24.4711 21.1525C24.4711 22.7318 24.4711 24.3111 24.4711 25.7851C24.4711 26.3116 24.787 26.6274 25.3134 26.6274C27.1033 26.6274 28.8931 26.6274 30.683 26.6274C31.3147 26.6274 31.5253 26.4169 31.5253 25.7851C31.5253 24.2058 31.5253 22.7318 31.5253 21.1525C31.5253 20.5208 31.3147 20.3102 30.683 20.3102C29.7354 20.3102 28.8931 20.3102 27.9456 20.3102ZM36.1579 26.6274C37.0002 26.6274 37.8425 26.6274 38.6848 26.6274C39.4218 26.6274 39.6324 26.4169 39.6324 25.6798C39.6324 24.2058 39.6324 22.6265 39.6324 21.1525C39.6324 20.5208 39.4218 20.3102 38.7901 20.3102C37.0002 20.3102 35.3156 20.3102 33.5258 20.3102C32.894 20.3102 32.6835 20.5208 32.6835 21.1525C32.6835 22.7318 32.6835 24.2058 32.6835 25.7851C32.6835 26.4169 32.894 26.6274 33.5258 26.6274C34.4733 26.6274 35.3156 26.6274 36.1579 26.6274ZM36.1579 12.7296C35.3156 12.7296 34.3681 12.7296 33.5258 12.7296C32.894 12.7296 32.6835 12.9401 32.6835 13.5719C32.6835 15.1512 32.6835 16.7305 32.6835 18.2045C32.6835 18.8362 32.894 19.0468 33.5258 19.0468C35.3156 19.0468 37.0002 19.0468 38.7901 19.0468C39.4218 19.0468 39.6324 18.8362 39.6324 18.2045C39.6324 16.7305 39.6324 15.1512 39.6324 13.6771C39.6324 13.0454 39.4218 12.8349 38.6848 12.8349C37.8425 12.7296 37.0002 12.7296 36.1579 12.7296ZM36.1579 27.8909C35.3156 27.8909 34.3681 27.8909 33.5258 27.8909C32.894 27.8909 32.6835 28.1014 32.6835 28.7332C32.6835 30.2072 32.6835 31.7865 32.6835 33.2605C32.6835 33.9975 32.894 34.2081 33.631 34.2081C35.3156 34.2081 37.0002 34.2081 38.6848 34.2081C39.4218 34.2081 39.6324 33.9975 39.6324 33.2605C39.6324 31.7865 39.6324 30.2072 39.6324 28.7332C39.6324 28.1014 39.4218 27.8909 38.6848 27.8909C37.8425 27.8909 37.0002 27.8909 36.1579 27.8909ZM44.3703 27.8909C43.528 27.8909 42.5804 27.8909 41.7381 27.8909C41.1064 27.8909 40.8958 28.1014 40.8958 28.7332C40.8958 30.2072 40.8958 31.7865 40.8958 33.2605C40.8958 33.9975 41.1064 34.2081 41.8434 34.2081C43.528 34.2081 45.2126 34.2081 46.8972 34.2081C47.6342 34.2081 47.8448 33.9975 47.8448 33.2605C47.8448 31.7865 47.8448 30.2072 47.8448 28.7332C47.8448 28.1014 47.6342 27.8909 46.8972 27.8909C46.0549 27.8909 45.2126 27.8909 44.3703 27.8909Z" fill="#2A56A2"></path>
<path d="M25.1028 46.2107C25.2081 47.053 24.787 47.6847 24.05 47.79C23.4183 47.8953 22.7865 47.4742 22.6812 46.8424C22.576 46.1054 22.8918 45.4737 23.6288 45.3684C23.9447 45.2631 24.2606 45.1578 24.1553 45.7896C24.05 46.1054 24.4711 46.4213 25.1028 46.2107Z" fill="#2A56A2"></path>
</g>
<defs>
<clipPath id="clip0">
<rect width="66.8571" height="47.8002" fill="white" transform="translate(2.57143 11.5714)"></rect>
</clipPath>
</defs>
</svg>