<svg width="72" height="72" viewBox="0 0 72 72" fill="none" xmlns="http://www.w3.org/2000/svg">
<path d="M63.6383 8.66306C66.6371 11.6604 58.3239 24.8358 56.9184 26.2419C55.513 27.6452 51.9434 26.3541 48.946 23.3561C45.9473 20.3587 44.6555 16.7884 46.0609 15.3829C47.4656 13.9768 60.6403 5.66429 63.6383 8.66306Z" fill="#B5010F"></path>
<path d="M21.5863 11.8363C17.0082 9.23871 10.4938 6.34934 8.42141 8.4217C6.3217 10.5207 9.31697 17.1817 11.942 21.7682C14.278 17.707 17.6008 14.2881 21.5863 11.8363Z" fill="#B5010F"></path>
<path d="M59.0646 25.2085C59.4861 26.6385 59.4104 27.8195 58.7266 28.5018C57.1298 30.0994 52.816 28.3988 48.9273 24.698C48.6559 24.4546 48.3866 24.2022 48.1222 23.9371C46.7161 22.5302 45.6221 21.033 44.9222 19.6542C43.5602 17.2109 43.2194 15.053 44.2489 14.0234C44.81 13.4631 45.7076 13.3102 46.8024 13.5073C47.5163 13.0556 48.3592 12.5528 49.2836 12.0373C45.5253 10.0772 41.2522 8.96985 36.7197 8.96985C21.6859 8.96985 9.49792 21.1557 9.49792 36.1909C9.49792 51.2234 21.6859 63.4106 36.7197 63.4106C51.7536 63.4106 63.9408 51.2234 63.9408 36.1909C63.9408 31.3358 62.6665 26.783 60.4406 22.836C59.9595 23.7141 59.4917 24.5184 59.0646 25.2085Z" fill="#B5010F"></path>
</svg>