<svg width="72" height="72" viewBox="0 0 72 72" fill="none" xmlns="http://www.w3.org/2000/svg">
<path fill-rule="evenodd" clip-rule="evenodd" d="M36.0002 63.4785L46.89 29.9633H25.1104L36.0002 63.4785Z" fill="#E24329"></path>
<path fill-rule="evenodd" clip-rule="evenodd" d="M35.9992 63.4785L25.1094 29.9633H9.84753L35.9992 63.4785Z" fill="#FC6D26"></path>
<path fill-rule="evenodd" clip-rule="evenodd" d="M9.84833 29.9633L6.5391 40.1482C6.23727 41.0772 6.56785 42.0948 7.3581 42.6689L36 63.4785L9.84833 29.9633Z" fill="#FCA326"></path>
<path fill-rule="evenodd" clip-rule="evenodd" d="M9.84821 29.9649H25.11L18.5511 9.77901C18.2137 8.74019 16.7443 8.74047 16.4069 9.77901L9.84821 29.9649Z" fill="#E24329"></path>
<path fill-rule="evenodd" clip-rule="evenodd" d="M36 63.4785L46.8898 29.9633H62.1517L36 63.4785Z" fill="#FC6D26"></path>
<path fill-rule="evenodd" clip-rule="evenodd" d="M62.1517 29.9633L65.4609 40.1482C65.7627 41.0772 65.4321 42.0948 64.6419 42.6689L36 63.4785L62.1517 29.9633Z" fill="#FCA326"></path>
<path fill-rule="evenodd" clip-rule="evenodd" d="M62.1516 29.9649H46.8897L53.4487 9.77901C53.786 8.74019 55.2555 8.74047 55.5928 9.77901L62.1516 29.9649Z" fill="#E24329"></path>
</svg>