<?xml version="1.0" encoding="utf-8"?>
<!-- Generator: Adobe Illustrator 25.2.0, SVG Export Plug-In . SVG Version: 6.00 Build 0)  -->
<svg version="1.1" id="Warstwa_1" xmlns="http://www.w3.org/2000/svg" xmlns:xlink="http://www.w3.org/1999/xlink" x="0px" y="0px"
	 viewBox="0 0 28 28" enable-background="new 0 0 28 28" xml:space="preserve">
<path id="Kształt_514" fill-rule="evenodd" clip-rule="evenodd" fill="#FFFFFF" d="M9,2.1C5.2,2.1,2.1,5.2,2.1,9v10
	c0,3.8,3.1,6.9,6.9,6.9h10c3.8,0,6.9-3.1,6.9-6.9V9c0-3.8-3.1-6.9-6.9-6.9H9z M9,3.9h10c2.8,0,5.1,2.3,5.1,5.1c0,0,0,0,0,0v10
	c0,2.8-2.3,5.1-5.1,5.1c0,0,0,0,0,0H9c-2.8,0-5.1-2.3-5.1-5.1c0,0,0,0,0,0V9C3.9,6.2,6.2,3.9,9,3.9C9,3.9,9,3.9,9,3.9L9,3.9z
	 M20.9,5.7c-0.8,0-1.4,0.6-1.4,1.4s0.6,1.4,1.4,1.4c0.8,0,1.4-0.6,1.4-1.4c0,0,0,0,0,0C22.2,6.4,21.6,5.8,20.9,5.7L20.9,5.7z
	 M14,7.6c-3.5,0-6.4,2.9-6.4,6.4s2.9,6.4,6.4,6.4c3.5,0,6.4-2.9,6.4-6.4C20.4,10.5,17.5,7.6,14,7.6L14,7.6z M14,9.4
	c2.5,0,4.6,2,4.6,4.6c0,2.5-2,4.6-4.6,4.6c-2.5,0-4.6-2-4.6-4.6c0,0,0,0,0,0C9.4,11.5,11.4,9.4,14,9.4C14,9.4,14,9.4,14,9.4L14,9.4z
	"/>
</svg>
