<svg class="icon-sm" xmlns="http://www.w3.org/2000/svg" x="0px" y="0px" viewBox="0 0 48 48">
  <style>
    .icon-sm .fill-gradient {
      fill: #cadefe;
      stroke: #b2b9ce;
      stroke-width: 1;
    }

    .icon-sm .fill-primary.stroke-primary {
      stroke-width: 1;
    }

    .icon-sm .stroke-primary,
    .icon-sm .stroke-primary-l {
      stroke: #007bfc;
    }

    .icon-sm .fill-primary {
      fill: #007bfc;
    }

    .icon-sm .stroke-dark {
      stroke: #142149;
    }

    .icon-sm .fill-primary {
      fill: #007bfc;
    }

    .icon-sm>* {
      fill: none;
    }
  </style>
  <path class="fill-gradient" d="M11.7,36.1l3.3-1.9"></path>
  <path class="fill-gradient" d="M12.3,23.7c0.5-0.5,0.9-1.2,1-2c0-2-1-2-1-2v-2l16-10V7.5c0,0-1.5,0.5-1.5-1.2c0.1-1.1,0.8-2.1,1.7-2.6V0.5l-23,13.3v2.8c0,0,1.5-0.9,1.5,0.9c0,1.1-0.6,2.1-1.5,2.6v19.4l6.2-3.5L12.3,23.7z"></path>
  <path class="fill-primary stroke-primary" d="M15.5,26c0,0,2-1.5,1.8-2.3c-0.7-0.3-1.3-0.7-1.8-1.2v-3.1l17.3-9.9c0.1-1,0.8-1.9,1.8-2.3V4l-23,13v3.1c0,0,1.5-0.9,1.5,0.9c0,1.1-0.6,2.1-1.5,2.6V43l3.9-2.2L15.5,26z"></path>
  <path class="stroke-dark" d="M42.5,8.5l-3.8-2.1l-23.2,13v3.1l2.1,1.1c-0.4,1-1.1,1.9-2.1,2.4v19.4l4,2.1"></path>
  <path class="stroke-dark" d="M42.5,15.1c0,0-1.5,0.9-1.5-0.9c0-1.1,0.6-2.1,1.5-2.6V8.5l-23,13v3.1c0,0,1.5-0.9,1.5,0.9c0,1.1-0.6,2.1-1.5,2.6v19.4l23-13V15.1z"></path>
  <polygon class="fill-primary" points="27.1,26.1 37,20.9 37,30.7 27,36"></polygon>
  <line class="stroke-dark" x1="19.5" y1="24.6" x2="15.5" y2="22.5"></line>
</svg>