<svg width="72" height="72" viewBox="0 0 72 72" fill="none" xmlns="http://www.w3.org/2000/svg">
<path d="M16.0708 68.4802C15.8997 68.1042 15.7596 67.7656 15.7596 67.7277C15.7596 67.6898 15.1637 64.5596 15.0958 63.7552C14.7993 60.2432 14.3318 59.9069 14.4623 56.7756C14.5414 54.8789 14.2779 54.2318 14.8385 52.6807C15.993 49.4862 16.8396 48.2293 18.34 47.4817C19.5571 46.8752 20.6991 46.9576 21.771 47.7292C22.0535 47.9326 23.0014 48.5732 23.8774 49.1529C24.7534 49.7325 25.7938 50.4353 26.1894 50.7146C26.585 50.9938 27.2449 51.3968 27.6558 51.6101C28.3806 51.9863 28.4073 51.992 28.5543 51.802C28.8773 51.3846 29.6569 50.2132 30.0784 49.6541C32.1899 46.8534 30.2013 47.1647 29.7044 47.0186C28.9231 46.7889 28.594 46.4524 27.8637 45.5976C26.1677 43.6122 25.3639 41.4033 25.2452 38.6738C25.1072 35.5043 25.4264 32.9482 26.8198 31.4934C27.4171 30.8698 28.6814 29.9643 29.8372 29.3322C30.8161 28.7968 36.8197 27.678 37.3466 27.9105C37.6098 28.0266 36.3046 24.5811 37.0557 20.1012C37.2049 19.2113 38.2184 16.4574 38.3255 16.27C38.5899 15.8073 42.9468 14.3179 44.1861 13.5909C45.5709 12.7787 48.5656 10.8222 48.7912 9.36699C49.287 6.16918 49.375 4.80265 49.5817 4.68259C49.8893 4.5039 51.9453 8.73775 50.5536 12.7299C50.279 13.5178 48.9692 15.347 48.3827 16.1122C47.9604 16.6631 48.8775 16.9206 49.4051 17.716C49.885 18.4395 50.2005 20.2079 50.262 21.1243C50.3249 22.06 50.0285 23.9799 49.763 24.3565C49.6554 24.509 49.6114 24.6589 49.6645 24.6915C49.7173 24.7241 50.0752 24.6815 50.4599 24.5969C50.8445 24.5124 51.6782 24.3777 52.3125 24.2977C53.4417 24.1553 53.4822 24.1573 54.2485 24.3927C55.3982 24.7459 60.9901 26.0953 57.4219 41.7017C56.2397 46.8722 50.723 53.695 50.0293 53.1667L48.3211 51.8659L46.3525 54.7809C45.3478 55.8116 44.2644 56.8064 43.6254 57.2849C42.617 58.04 40.5995 59.2296 40.3271 59.2296C40.257 59.2296 39.8595 59.3924 39.444 59.5915C38.2424 60.167 36.4427 60.6387 34.5364 60.7638C27.1551 61.2414 29.9711 60.3513 23.8593 57.3953C23.3772 57.1622 22.2675 58.3384 20.9301 59.5539C19.5022 60.8515 18.7527 61.8391 18.1862 63.1691C17.9945 63.6194 17.696 64.3101 17.5229 64.704C17.0519 65.776 16.6644 67.2592 16.6069 68.2106C16.5787 68.676 16.5166 69.0808 16.4689 69.1102C16.4211 69.1396 16.242 68.8561 16.0708 68.4802V68.4802ZM24.1855 55.3473C25.1316 55.1083 25.2352 55.0556 26.2528 54.295C26.9819 53.7501 27.4337 52.7661 27.6277 52.6802C28.8972 52.1176 26.6801 51.6112 25.8513 51.0528C25.0224 50.4944 23.9445 50.0816 23.2103 49.5217C22.476 48.9619 21.8402 48.5254 21.7973 48.5518C21.7545 48.5781 21.7187 48.9539 21.7177 49.3867C21.7147 50.6492 21.5452 51.916 21.3083 52.446C21.1877 52.7158 21.0659 53.2358 21.0377 53.6016C20.9724 54.449 21.1698 54.8565 21.872 55.3238C22.4637 55.7176 22.7094 55.7201 24.1855 55.3473V55.3473ZM58.471 31.4366C58.163 29.3698 58.4181 26.5275 56.8057 25.4929C53.0858 23.106 52.6775 25.473 52.4493 25.9961C52.0739 26.8567 51.8428 27.5606 52.1277 28.5066C53.0031 31.4133 54.123 33.9871 54.6546 36.0531C55.2647 38.4242 55.9372 39.9238 56.0045 41.7829C56.0522 43.1028 56.0397 43.2416 55.8452 43.5465C55.5687 43.98 51.3908 45.0419 49.287 45.661C48.5646 45.8735 49.2045 47.4122 49.1217 47.9187C49.039 48.4252 47.9082 51.2563 48.2718 51.8255C51.8604 57.442 59.7958 40.3238 58.471 31.4366V31.4366ZM50.7412 45.2455C51.3025 45.1107 51.8273 44.9462 51.9074 44.88C51.9876 44.8138 52.1912 44.7701 52.3599 44.7829C52.6619 44.8058 53.8442 44.434 53.9351 44.2876C53.9607 44.2463 55.0155 43.6967 54.8045 43.5571C54.5935 43.4175 50.4704 40.3903 49.8792 40.0824C43.0711 36.5371 39.4923 36.293 37.2442 36.7454C33.3935 37.5202 30.0677 39.4704 29.6676 39.9514C29.5468 40.0967 35.6964 38.046 40.0615 40.2005C40.868 40.5986 42.5332 41.2827 43.7851 42.6214C44.9286 43.8443 45.9714 45.1382 46.792 45.3567C47.6819 45.5937 49.5054 45.5423 50.7412 45.2455V45.2455ZM42.5333 30.6285C44.6889 30.2517 48.0285 25.779 47.7687 25.3603C47.7335 25.3036 48.4146 24.1747 48.304 24.1526C44.2701 23.3493 44.3673 19.3375 44.3091 19.3017C44.2509 19.2659 38.3616 22.0794 37.0044 22.6654C35.8528 23.1627 37.1691 26.1274 37.8635 27.9675C38.1724 28.7861 39.8734 29.8778 40.558 30.3228C41.3679 30.8493 42.3491 30.6607 42.5333 30.6285V30.6285ZM47.1789 16.9783C48.3429 16.062 51.443 11.476 51.1141 9.61497C49.774 2.03288 49.1963 6.72682 49.1103 7.40345C49.0747 7.68369 48.9732 8.30437 48.8848 8.78274C48.7964 9.26112 48.6837 9.95182 48.6343 10.3176C48.585 10.6835 48.4485 11.3281 48.3311 11.7502C48.2137 12.1723 48.0283 12.8739 47.9191 13.3094C47.8099 13.7449 47.4423 14.8177 47.1022 15.6933C46.7621 16.569 46.4838 17.3063 46.4838 17.3318C46.4838 17.4597 46.7198 17.3396 47.1789 16.9783V16.9783Z" fill="url(#paint0_linear)"></path>
<path fill-rule="evenodd" clip-rule="evenodd" d="M16.376 68.2392C18.1956 60.71 19.842 59.8662 24.1744 57.0752C23.2212 56.5343 20.8756 54.7411 20.8817 53.7866C20.8981 50.9997 21.3594 46.1423 18.2823 48.1613C12.4437 51.9922 14.5564 64.1717 16.376 68.2392Z" fill="url(#paint1_linear)"></path>
<path fill-rule="evenodd" clip-rule="evenodd" d="M22.7781 56.1087C25.3506 58.05 27.6243 59.7662 29.238 60.6764C44.974 61.471 48.9033 52.7828 49.1892 45.66C47.7886 45.7242 45.4019 45.3816 44.1156 43.4457C40.9037 44.4987 31.1793 47.4515 31.0102 48.1151C30.1324 51.5579 27.523 54.3387 22.7781 56.1087V56.1087Z" fill="url(#paint2_linear)"></path>
<path fill-rule="evenodd" clip-rule="evenodd" d="M50.0855 53.2101C59.5902 46.1443 58.3669 31.9958 58.5204 31.2713C58.9108 29.4294 56.6159 23.1895 53.8593 24.3344C49.2697 26.2405 57.0891 37.0484 56.0401 42.9761C55.8215 44.2116 52.0333 45.1224 49.4582 45.5217C49.1612 45.5678 49.4249 49.5539 48.1331 51.3887C47.9481 51.6514 49.9118 53.3392 50.0855 53.2101V53.2101Z" fill="url(#paint3_linear)"></path>
<path fill-rule="evenodd" clip-rule="evenodd" d="M51.4116 52.2406C63.5821 40.2977 57.4212 18.9775 53.172 25.2046C59.0082 24.0258 59.9367 43.5892 51.4116 52.2406V52.2406Z" fill="url(#paint4_linear)"></path>
<path fill-rule="evenodd" clip-rule="evenodd" d="M28.3013 52.4076C28.5264 52.1042 24.3254 50.6675 21.7863 48.3842C21.5048 48.131 21.4594 52.078 21.1934 53.7237C21.0281 54.7463 22.7665 55.7758 23.1638 55.9041C23.4934 56.0105 27.3771 53.6531 28.3013 52.4076V52.4076Z" fill="url(#paint5_linear)"></path>
<path fill-rule="evenodd" clip-rule="evenodd" d="M24.9704 41.0312C23.51 33.6383 26.1675 29.2913 36.816 27.7642C36.8676 27.9269 48.6504 23.9721 52.7956 23.9452C51.6721 25.7283 52.808 30.131 54.173 33.7504C54.173 33.7504 44.1979 36.35 24.9704 41.0312V41.0312Z" fill="url(#paint6_linear)"></path>
<path fill-rule="evenodd" clip-rule="evenodd" d="M30.1455 39.8548C31.4091 39.4026 35.0166 38.3128 39.3263 39.8114C42.278 40.8377 43.9718 43.4253 45.246 44.4205C48.2473 46.7647 53.7877 44.1606 54.7898 44.1764C55.2016 44.1828 47.3525 37.1385 41.4348 36.7821C33.4795 36.303 28.5142 40.4386 30.1455 39.8548V39.8548Z" fill="url(#paint7_linear)"></path>
<path fill-rule="evenodd" clip-rule="evenodd" d="M49.5561 4.82295C49.5124 7.22703 48.7551 12.9653 46.3176 16.8871C45.2027 18.6809 50.4764 14.5194 51.0441 10.9424C51.3564 8.97501 49.5923 2.90699 49.5561 4.82295V4.82295Z" fill="url(#paint8_linear)"></path>
<path fill-rule="evenodd" clip-rule="evenodd" d="M41.6411 31.0451C44.2874 29.6955 46.6982 27.9207 48.2261 24.6251C48.4848 24.0671 46.966 24.6083 45.7986 22.9532C44.6427 21.3144 44.9155 19.6512 43.9255 19.7842C40.8321 20.1999 36.7076 23.1133 36.7076 23.1133C36.7076 23.1133 36.9448 26.3012 37.7809 27.597C39.5048 30.2686 41.6411 31.0451 41.6411 31.0451V31.0451Z" fill="url(#paint9_linear)"></path>
<path opacity="0.552238" fill-rule="evenodd" clip-rule="evenodd" d="M45.7365 22.6582C46.5172 25.4871 50.8557 24.9744 49.9487 19.4679C49.5576 20.0389 48.5807 23.1744 45.7365 22.6582Z" fill="url(#paint10_linear)"></path>
<path fill-rule="evenodd" clip-rule="evenodd" d="M41.2669 30.8142C39.806 29.8219 38.5448 28.5873 37.7369 27.2814C36.9289 25.9754 36.5742 19.3153 37.9336 17.66C38.6806 15.8395 41.3251 14.0801 44.2626 13.303C38.6789 19.7695 40.4882 29.5706 45.4293 28.6175C45.6762 28.5699 41.7558 30.8289 41.2669 30.8142V30.8142Z" fill="url(#paint11_linear)"></path>
<path fill-rule="evenodd" clip-rule="evenodd" d="M21.744 48.1881C22.835 48.9945 27.5407 52.6323 28.5779 52.0566C26.1691 57.9378 19.8269 52.9555 21.744 48.1881V48.1881Z" fill="url(#paint12_linear)"></path>
<path d="M41.1445 15.1576C40.0139 15.8157 38.6547 16.5518 38.3848 17.2173C37.4791 19.1177 37.1396 22.5282 37.4154 22.3324C40.1031 20.4235 43.2149 19.8943 44.3472 18.872C47.7025 15.8424 49.0051 9.57955 48.3001 10.5079C46.0176 13.5132 42.3108 14.4787 41.1445 15.1576V15.1576ZM23.5562 57.2125C23.5562 57.2125 20.3824 55.02 20.4409 54.3166C20.927 48.4715 19.8883 48.1304 19.3649 48.1924C18.7324 48.2673 15.4461 50.3395 14.805 56.1903C14.3398 60.4359 16.0194 67.0692 16.2753 67.4281C17.5993 63.8741 17.0827 61.0136 23.5562 57.2125V57.2125ZM58.2289 31.3173C58.071 26.9354 55.4296 23.9226 53.6356 24.6282C52.8745 24.9275 52.3635 26.9678 52.6307 28.2329C52.8677 29.355 54.4828 33.6972 54.5989 34.0643C54.8735 34.9322 56.7272 40.2518 56.3977 42.8078C56.1088 45.0481 49.6069 45.8232 49.6069 45.8232C49.6069 45.8232 49.4976 47.6468 49.2735 48.8789C48.9979 50.3936 48.4516 51.5823 48.4516 51.5823C48.4516 51.5823 49.8672 52.8995 49.9244 52.898C49.9817 52.8966 58.8344 48.1171 58.2289 31.3173V31.3173ZM51.4419 44.8909C51.8995 44.763 54.6016 44.0494 54.4568 43.9545C53.4541 43.2976 52.313 42.4707 50.4018 40.986C39.7914 32.7438 30.1538 39.6859 30.3437 39.6228C32.1056 39.0375 33.9661 38.7068 36.5509 38.8792C38.6329 39.0181 41.9058 40.0722 44.7728 43.4856C45.8392 44.7552 47.0492 45.6167 51.4419 44.8909ZM46.7089 27.0003C47.0299 26.7229 48.1457 24.6221 47.9448 24.5733C45.1291 23.8894 44.8548 22.6452 44.5793 21.2914C44.3211 20.0234 44.361 19.8426 43.8276 20.0185C39.5179 21.4403 38.3258 22.2216 37.6663 22.7682C36.6333 23.6245 37.3579 25.9253 37.7618 26.8398C38.3248 28.1143 40.3947 30.4206 41.3576 30.6063C42.7622 30.8772 46.0816 28.0032 46.7089 27.0003V27.0003ZM49.8411 19.2362C49.6075 18.2821 48.8572 17.0534 48.6572 17.0534C48.4689 17.0534 46.4751 18.5943 45.9601 19.1312C44.7913 20.3498 45.3609 22.558 46.6575 23.3154C48.852 24.5974 50.4636 21.7789 49.8411 19.2362V19.2362ZM48.1865 15.5871C49.1466 14.6292 50.4229 13.0567 50.7623 10.6672C50.8953 9.73069 50.9726 8.90689 50.3894 7.05521C50.2542 6.62605 49.8434 5.39179 49.828 5.5544C49.5247 8.76514 49.0802 12.3303 46.9821 16.1193C46.3235 17.3086 46.6777 17.0924 48.1865 15.5871V15.5871ZM25.6688 34.71C24.525 39.5019 27.556 45.7952 30.0114 46.1539C32.385 46.5006 39.1896 44.4487 42.7583 43.4575C43.6933 43.1978 44.1963 43.3333 42.1278 41.6025C38.8848 39.4005 36.2675 39.117 33.6563 39.413C30.7762 39.7395 28.618 40.5909 28.8199 40.4221C30.1404 39.3177 32.4925 37.3429 37.0366 36.4486C39.0117 36.0599 42.0597 36.0258 45.7397 37.4613C50.3042 39.2419 52.6816 41.8825 54.6115 42.7774C55.2987 43.0961 55.5442 42.948 55.8157 42.1515C56.2706 40.8171 53.5053 32.4855 52.5034 30.056C50.9745 26.3484 52.7583 24.5763 52.3684 24.6621C50.4773 25.0784 48.8097 26.2925 47.4117 27.5426C43.9946 30.5983 41.9118 31.2493 41.6027 31.223C40.6268 31.1401 38.8009 29.415 38.1374 28.5391C37.7141 27.9801 30.138 29.4407 27.9039 31.3792C27.8528 31.4235 26.129 32.5277 25.6688 34.71V34.71ZM23.2414 55.5723C25.7402 54.5252 28.1866 52.2999 27.975 52.2632C26.6777 52.0378 21.8933 48.7635 21.8966 48.7975C22.0609 50.4872 21.6922 52.0056 21.524 53.6804C21.4538 54.3789 22.386 55.461 23.2414 55.5723ZM31.3045 48.2477C30.8264 49.312 30.3273 53.4973 23.4194 56.1831C23.2193 56.2609 29.2084 60.3512 29.5343 60.3655C49.3125 61.2326 49.1449 46.1897 48.8824 45.8104C48.8444 45.7555 47.1528 45.8144 45.8425 45.1934C45.7426 45.1461 44.8538 44.6885 44.3239 43.9993C44.1441 43.7655 44.1162 43.6385 43.4501 43.8318C40.3675 44.7266 31.1642 48.0247 31.3045 48.2477V48.2477ZM25.143 40.9103C21.6112 28.5848 34.0057 28.013 35.9708 27.5384C37.4905 27.1714 37.1594 27.0287 36.8389 25.5931C36.389 23.5774 36.5291 21.8203 36.9148 19.9369C37.2796 18.156 37.4677 17.2554 38.2381 16.3624C38.859 15.6426 42.3578 13.9965 43.2252 13.581C46.9214 11.8103 48.3336 9.86406 48.7456 8.33322C49.036 7.25402 49.461 4.59408 49.27 2.6928C49.2229 2.22482 49.5253 2.9581 51.0291 7.625C51.7976 10.0096 51.4192 12.8729 48.9956 15.4579C48.6665 15.809 48.8261 15.8785 49.2687 16.609C50.1883 18.1268 50.6967 20.0246 50.5535 21.4054C50.4361 22.5366 49.952 23.6062 50.6444 23.5231C50.7445 23.5111 53.8031 23.0486 55.8968 24.3777C57.3147 25.2778 59.3346 27.0032 58.8103 34.2107C57.6622 49.9935 49.9415 53.4282 49.8873 53.4301C49.7566 53.4346 48.3122 51.9366 48.2267 52.113C43.7996 61.2474 34.6648 60.9192 29.5701 61.0152C28.5515 61.0344 24.316 57.4724 23.959 57.7161C19.45 60.7938 18.1982 61.5625 16.4596 69.4287C16.3929 69.304 14.0485 65.1504 14.1458 56.797C14.2256 49.9528 17.9693 46.7229 19.6335 46.9092C21.654 47.1353 22.6679 48.1881 25.5134 50.0553C26.0213 50.3886 27.8158 51.4724 28.2242 51.4625C29.2416 51.4386 29.9356 49.5717 30.1017 48.3631C30.2692 47.144 30.4311 47.4386 29.4784 47.1112C28.2774 46.6983 26.2057 44.4519 25.143 40.9103V40.9103Z" fill="#2C3B54"></path>
<path fill-rule="evenodd" clip-rule="evenodd" d="M31.4225 48.1331C33.2771 47.1223 43.8051 43.8349 43.8996 43.6285C43.9686 43.4779 31.5506 48.5799 28.7381 46.6886C28.5686 46.5746 29.395 47.181 30.1422 47.3341C30.1947 47.3449 30.1911 49.3057 29.4832 50.4152C29.2847 50.7263 30.9919 48.3678 31.4225 48.1331Z" fill="url(#paint13_linear)"></path>
<path fill-rule="evenodd" clip-rule="evenodd" d="M48.5773 17.0537C47.4233 17.8583 45.8322 18.9825 45.5068 19.8495C45.315 20.3608 45.1853 18.4216 46.4955 17.2663C47.2336 16.6154 48.8135 16.8891 48.5773 17.0537Z" fill="url(#paint14_linear)"></path>
<path fill-rule="evenodd" clip-rule="evenodd" d="M47.025 23.5296C48.3339 23.9194 49.345 23.1209 49.8992 21.4006C49.9647 21.1972 49.7372 22.9072 48.9238 23.5428C48.1482 24.1488 46.7491 23.4474 47.025 23.5296V23.5296Z" fill="url(#paint15_linear)"></path>
<path fill-rule="evenodd" clip-rule="evenodd" d="M50.3476 25.3059C52.2022 24.2951 54.101 24.4498 55.7195 24.5227C56.7939 24.571 53.6957 23.3197 50.1761 23.5153C49.8001 23.835 48.683 25.6997 47.1086 27.588C46.8723 27.8715 49.917 25.5406 50.3476 25.3059V25.3059Z" fill="url(#paint16_linear)"></path>
<path fill-rule="evenodd" clip-rule="evenodd" d="M32.6956 29.3023C33.7846 29.0784 35.1504 28.7088 36.0544 28.6177C36.8082 28.5418 37.7526 28.1179 38.4782 28.8974C38.0742 28.3442 37.3016 27.2271 37.0608 26.4954C37.28 27.3551 36.3004 27.4764 36.0569 27.515C30.5815 28.379 27.2877 29.8517 25.6258 32.5904C28.7736 30.1581 32.4901 29.3445 32.6956 29.3023V29.3023Z" fill="url(#paint17_linear)"></path>
<defs>
<linearGradient id="paint0_linear" x1="41.8937" y1="14.883" x2="50.4136" y2="44.0698" gradientUnits="userSpaceOnUse">
<stop stop-color="#0F3060"></stop>
<stop offset="0.271152" stop-color="#0575CE"></stop>
<stop offset="0.732747" stop-color="#0575CE"></stop>
<stop offset="1" stop-color="#0F3060"></stop>
</linearGradient>
<linearGradient id="paint1_linear" x1="25.5391" y1="51.9238" x2="15.4299" y2="69.0409" gradientUnits="userSpaceOnUse">
<stop stop-color="#092D61"></stop>
<stop offset="1" stop-color="#0575CE"></stop>
</linearGradient>
<linearGradient id="paint2_linear" x1="34.9939" y1="61.8974" x2="40.8634" y2="23.6578" gradientUnits="userSpaceOnUse">
<stop stop-color="#0F3060"></stop>
<stop offset="0.456982" stop-color="#0575CE"></stop>
<stop offset="0.738284" stop-color="#0575CE"></stop>
<stop offset="1" stop-color="#0F3060"></stop>
</linearGradient>
<linearGradient id="paint3_linear" x1="38.2884" y1="53.2171" x2="32.6284" y2="29.0829" gradientUnits="userSpaceOnUse">
<stop stop-color="#FF8000"></stop>
<stop offset="0.662721" stop-color="#FFF4E1"></stop>
<stop offset="0.75" stop-color="#FFF4E1"></stop>
<stop offset="1" stop-color="#FF8400"></stop>
</linearGradient>
<linearGradient id="paint4_linear" x1="67.3609" y1="30.8964" x2="47.2136" y2="35.309" gradientUnits="userSpaceOnUse">
<stop stop-color="white"></stop>
<stop offset="1" stop-color="white" stop-opacity="0"></stop>
</linearGradient>
<linearGradient id="paint5_linear" x1="24.7461" y1="49.0347" x2="21.1886" y2="54.81" gradientUnits="userSpaceOnUse">
<stop stop-color="#FFC768"></stop>
<stop offset="0.378421" stop-color="#FF8400"></stop>
<stop offset="0.774204" stop-color="#FF8400"></stop>
<stop offset="1" stop-color="#FFC768"></stop>
</linearGradient>
<linearGradient id="paint6_linear" x1="34.6955" y1="23.1447" x2="37.5102" y2="39.7625" gradientUnits="userSpaceOnUse">
<stop stop-color="white"></stop>
<stop offset="1" stop-color="white" stop-opacity="0"></stop>
</linearGradient>
<linearGradient id="paint7_linear" x1="39.7034" y1="38.8817" x2="43.791" y2="47.0871" gradientUnits="userSpaceOnUse">
<stop stop-color="#FF8000"></stop>
<stop offset="0.341448" stop-color="#FFC768"></stop>
<stop offset="0.71198" stop-color="#FFC768"></stop>
<stop offset="1" stop-color="#FF8400"></stop>
</linearGradient>
<linearGradient id="paint8_linear" x1="47.6521" y1="11.4186" x2="52.1067" y2="10.8846" gradientUnits="userSpaceOnUse">
<stop stop-color="#FF8000"></stop>
<stop offset="0.5" stop-color="#FFF4E1"></stop>
<stop offset="0.75" stop-color="#FFF4E1"></stop>
<stop offset="1" stop-color="#FF8400"></stop>
</linearGradient>
<linearGradient id="paint9_linear" x1="44.7566" y1="28.9068" x2="39.4105" y2="21.8212" gradientUnits="userSpaceOnUse">
<stop stop-color="#FF8000"></stop>
<stop offset="0.341448" stop-color="#FFC768"></stop>
<stop offset="0.71198" stop-color="#FFC768"></stop>
<stop offset="1" stop-color="#FF8400"></stop>
</linearGradient>
<linearGradient id="paint10_linear" x1="51.3988" y1="27.425" x2="46.9946" y2="21.1309" gradientUnits="userSpaceOnUse">
<stop stop-color="white"></stop>
<stop offset="1" stop-color="white" stop-opacity="0"></stop>
</linearGradient>
<linearGradient id="paint11_linear" x1="28.8438" y1="28.0619" x2="43.726" y2="23.3531" gradientUnits="userSpaceOnUse">
<stop stop-color="white"></stop>
<stop offset="1" stop-color="white" stop-opacity="0"></stop>
</linearGradient>
<linearGradient id="paint12_linear" x1="29.2653" y1="53.4987" x2="21.7502" y2="48.1795" gradientUnits="userSpaceOnUse">
<stop stop-color="white"></stop>
<stop offset="1" stop-color="white" stop-opacity="0"></stop>
</linearGradient>
<linearGradient id="paint13_linear" x1="31.7757" y1="46.4587" x2="32.7168" y2="49.7424" gradientUnits="userSpaceOnUse">
<stop stop-color="#212A3A"></stop>
<stop offset="1" stop-color="#404E67" stop-opacity="0"></stop>
</linearGradient>
<linearGradient id="paint14_linear" x1="45.3867" y1="19.9336" x2="49.1255" y2="19.0349" gradientUnits="userSpaceOnUse">
<stop stop-color="#212A3A"></stop>
<stop offset="1" stop-color="#404E67" stop-opacity="0"></stop>
</linearGradient>
<linearGradient id="paint15_linear" x1="48.9602" y1="23.7964" x2="47.168" y2="23.5407" gradientUnits="userSpaceOnUse">
<stop stop-color="#212A3A"></stop>
<stop offset="1" stop-color="#404E67" stop-opacity="0"></stop>
</linearGradient>
<linearGradient id="paint16_linear" x1="48.8812" y1="24.946" x2="56.409" y2="23.4884" gradientUnits="userSpaceOnUse">
<stop stop-color="#212A3A"></stop>
<stop offset="1" stop-color="#404E67" stop-opacity="0"></stop>
</linearGradient>
<linearGradient id="paint17_linear" x1="32.1468" y1="28.7245" x2="27.0867" y2="31.161" gradientUnits="userSpaceOnUse">
<stop stop-color="#212A3A"></stop>
<stop offset="1" stop-color="#404E67" stop-opacity="0"></stop>
</linearGradient>
</defs>
</svg>