<svg width="72" height="72" viewBox="0 0 72 72" fill="none" xmlns="http://www.w3.org/2000/svg">
<path d="M18.648 36.144L17.64 35.136C14.4 31.896 13.464 27.36 14.616 23.256C11.376 22.536 9 19.656 9 16.2C9 12.24 12.24 9 16.2 9C19.8 9 22.752 11.592 23.328 15.048C27.216 14.112 31.464 15.192 34.488 18.216L34.92 18.648L29.592 23.976L29.16 23.544C27.432 21.816 24.624 21.816 22.896 23.544C21.168 25.272 21.168 28.08 22.896 29.808L34.848 41.76L29.52 47.088L23.904 41.472L18.648 36.144Z" fill="#7AC143"></path>
<path d="M24.6251 30.2397L36.5771 18.2877C39.7451 15.1197 44.3531 14.1117 48.3851 15.2637C48.8891 11.7357 51.9131 9.07166 55.5131 9.07166C59.4731 9.07166 62.7131 12.3117 62.7131 16.2717C62.7131 19.9437 59.9771 22.9677 56.4491 23.3997C57.6011 27.4317 56.5931 31.9677 53.4251 35.1357L52.9931 35.5677L47.8091 30.2397L48.2411 29.8077C49.9691 28.0797 49.9691 25.2717 48.2411 23.5437C46.5131 21.8157 43.7051 21.8157 41.9771 23.5437L30.0251 35.4957L24.6251 30.2397Z" fill="#F9A541"></path>
<path d="M48.5999 57.0951C44.4959 58.3191 39.8879 57.3831 36.6479 54.1431L36.2159 53.7111L41.5439 48.3831L41.9759 48.8151C43.7039 50.5431 46.5119 50.5431 48.2399 48.8151C49.9679 47.0871 49.9679 44.2791 48.2399 42.5511L36.2879 30.5991L41.6159 25.2711L53.6399 37.2951C56.6639 40.3191 57.7439 44.6391 56.8079 48.5991C60.3359 49.1031 62.9999 52.1271 62.9999 55.7271C62.9999 59.6871 59.7599 62.9271 55.7999 62.9271C52.1999 62.8551 49.2479 60.3351 48.5999 57.0951V57.0951Z" fill="#F44321"></path>
<path d="M46.512 42.1216L34.56 54.0736C31.464 57.1696 27.144 58.1776 23.256 57.2416C22.536 60.4816 19.656 62.8576 16.2 62.8576C12.24 62.8576 9 59.6176 9 55.6576C9 52.2736 11.376 49.3936 14.544 48.6736C13.536 44.6416 14.544 40.3216 17.64 37.2256L18.072 36.7936L23.4 42.1216L22.968 42.5536C21.24 44.2816 21.24 47.0896 22.968 48.8176C24.696 50.5456 27.504 50.5456 29.232 48.8176L41.184 36.8656L46.512 42.1216Z" fill="#5091CD"></path>
</svg>