<svg width="72" height="72" viewBox="0 0 72 72" fill="none" xmlns="http://www.w3.org/2000/svg">
<g clip-path="url(#clip0)">
<path d="M46.2417 0.341411C45.115 1.00748 43.2439 2.89495 41.0092 5.62906L43.0621 9.51303C44.5032 7.44669 45.9664 5.58818 47.4432 4.00052C47.557 3.87446 47.6165 3.81484 47.6165 3.81484C47.5587 3.87616 47.501 3.93919 47.4432 4.00052C46.9656 4.5286 45.516 6.22358 43.3289 9.58969C45.4345 9.48407 48.6702 9.05309 51.3094 8.59996C52.0945 4.19131 50.5395 2.17267 50.5395 2.17267C50.5395 2.17267 48.5631 -1.03331 46.2417 0.341411Z" fill="url(#paint0_linear)"></path>
<path d="M39.3466 32.9615C39.0849 33.0092 38.8146 33.0552 38.5376 33.1029C38.5359 33.1029 38.5342 33.1046 38.5325 33.1046C38.6719 33.0842 38.8095 33.0638 38.9455 33.0399C39.0815 33.0161 39.214 32.9905 39.3466 32.9615Z" fill="#BE202E"></path>
<path opacity="0.35" d="M39.3466 32.9615C39.0849 33.0092 38.8146 33.0552 38.5376 33.1029C38.5359 33.1029 38.5342 33.1046 38.5325 33.1046C38.6719 33.0842 38.8095 33.0638 38.9455 33.0399C39.0815 33.0161 39.214 32.9905 39.3466 32.9615Z" fill="#BE202E"></path>
<path d="M40.0336 29.5633C40.0336 29.5633 40.0319 29.5633 40.0319 29.565C40.0302 29.565 40.0302 29.5667 40.0285 29.5667C40.0727 29.5616 40.1152 29.553 40.1577 29.5479C40.3327 29.5224 40.5043 29.4917 40.6709 29.4559C40.4618 29.49 40.2494 29.5275 40.0336 29.5633Z" fill="#BE202E"></path>
<path opacity="0.35" d="M40.0336 29.5633C40.0336 29.5633 40.0319 29.5633 40.0319 29.565C40.0302 29.565 40.0302 29.5667 40.0285 29.5667C40.0727 29.5616 40.1152 29.553 40.1577 29.5479C40.3327 29.5224 40.5043 29.4917 40.6709 29.4559C40.4618 29.49 40.2494 29.5275 40.0336 29.5633Z" fill="#BE202E"></path>
<path d="M37.0105 19.5493C37.6341 18.3807 38.2663 17.2376 38.9053 16.1252C39.5681 14.9703 40.2394 13.8494 40.9175 12.7694C40.9565 12.7063 40.9973 12.6416 41.0364 12.5769C41.706 11.5139 42.3824 10.4918 43.0638 9.51398L41.0109 5.63C40.8563 5.81909 40.7016 6.01159 40.5436 6.20749C39.9522 6.94681 39.337 7.74234 38.7065 8.58557C37.9961 9.53612 37.2654 10.5514 36.5227 11.6161C35.8378 12.6007 35.1428 13.6313 34.4477 14.6977C33.8563 15.6057 33.2615 16.5409 32.6718 17.5C32.6497 17.5357 32.6276 17.5715 32.6055 17.6073L35.277 22.8966C35.848 21.7638 36.4259 20.6463 37.0105 19.5493Z" fill="url(#paint1_linear)"></path>
<path d="M24.8428 49.352C24.4894 50.3264 24.1342 51.3179 23.7773 52.3314C23.7722 52.3468 23.7671 52.3604 23.762 52.3757C23.711 52.5188 23.6617 52.6619 23.6108 52.805C23.3711 53.4881 23.1621 54.1031 22.6846 55.5017C23.4714 55.8611 24.1036 56.8082 24.7018 57.8831C24.6389 56.7708 24.1784 55.7248 23.3066 54.9156C27.1864 55.0911 30.5291 54.1082 32.2575 51.265C32.4121 51.0112 32.5532 50.7455 32.6806 50.461C31.8955 51.4592 30.9217 51.8834 29.088 51.7795C29.0846 51.7812 29.0795 51.7829 29.0761 51.7846C29.0795 51.7829 29.0846 51.7812 29.088 51.7795C31.7867 50.5683 33.1412 49.4065 34.3376 47.4799C34.6214 47.0233 34.8967 46.5242 35.1788 45.9706C32.8183 48.3998 30.0839 49.0914 27.2034 48.5667L25.0434 48.8035C24.9754 48.9858 24.9091 49.168 24.8428 49.352Z" fill="url(#paint2_linear)"></path>
<path d="M25.8502 44.4998C26.3175 43.2903 26.7984 42.0672 27.2913 40.8322C27.7637 39.6499 28.2497 38.4609 28.746 37.265C29.2422 36.0692 29.7503 34.8716 30.2687 33.6724C30.7955 32.4527 31.3342 31.2347 31.8814 30.0235C32.4235 28.8259 32.9759 27.6335 33.5367 26.4529C33.7389 26.0271 33.9428 25.6029 34.1468 25.1804C34.5002 24.4496 34.8571 23.7256 35.2174 23.0085C35.2361 22.9693 35.2565 22.9318 35.2769 22.8926L32.6054 17.6033C32.5612 17.6748 32.5187 17.7464 32.4745 17.8179C31.8525 18.8366 31.2322 19.8791 30.6238 20.9438C30.0087 22.0187 29.4054 23.1141 28.8157 24.2248C28.3177 25.1617 27.8317 26.1071 27.3592 27.0611C27.2641 27.2553 27.1706 27.4461 27.0771 27.6386C26.4942 28.8395 25.9691 29.9996 25.4933 31.1154C24.9546 32.3794 24.4804 33.5872 24.0658 34.7319C23.7921 35.4849 23.544 36.2123 23.3163 36.9107C23.1294 37.5069 22.9509 38.1049 22.7827 38.6994C22.3833 40.1014 22.04 41.4999 21.7579 42.8934L24.443 48.2066C24.7982 47.256 25.1619 46.2936 25.5358 45.3175C25.6394 45.0466 25.7448 44.7723 25.8502 44.4998Z" fill="url(#paint3_linear)"></path>
<path d="M21.7226 43.0846C21.3861 44.7847 21.1465 46.478 21.0258 48.161C21.0224 48.2207 21.0156 48.2786 21.0122 48.3382C20.1744 46.9924 17.9311 45.679 17.9362 45.691C19.5422 48.0248 20.7607 50.3415 20.9425 52.6157C20.0826 52.7928 18.9049 52.5373 17.5437 52.0348C18.9627 53.3414 20.0282 53.7025 20.4429 53.7996C19.1394 53.8814 17.7816 54.7791 16.4135 55.8131C18.4138 54.9955 20.0299 54.6718 21.1872 54.9341C19.3519 60.1434 17.5114 65.8944 15.6709 71.9998C16.2351 71.8328 16.5716 71.4529 16.7602 70.9385C17.0882 69.8329 19.2652 62.5794 22.6759 53.045C22.7728 52.7741 22.8714 52.5015 22.9699 52.2273C22.9971 52.1506 23.026 52.074 23.0532 51.999C23.4135 50.9991 23.7874 49.9787 24.1731 48.9378C24.2615 48.701 24.3499 48.4643 24.4382 48.2258C24.4399 48.2207 24.4416 48.2155 24.4433 48.2121L21.7616 42.9006C21.7498 42.9603 21.7345 43.0216 21.7226 43.0846Z" fill="url(#paint4_linear)"></path>
<path d="M35.6918 23.3425C35.6153 23.4992 35.5389 23.6576 35.4607 23.8178C35.2296 24.2964 34.9951 24.7836 34.7571 25.2828C34.5005 25.8228 34.2422 26.3747 33.9805 26.9403C33.8479 27.2247 33.7171 27.5109 33.5828 27.8022C33.1835 28.6727 32.779 29.5722 32.3677 30.5006C31.863 31.6419 31.3481 32.8275 30.8264 34.0592C30.3284 35.2329 29.8237 36.4475 29.3122 37.7047C28.8261 38.8971 28.335 40.1287 27.8371 41.3978C27.3935 42.5307 26.9466 43.6925 26.4945 44.8883C26.4724 44.9462 26.4503 45.0041 26.4299 45.0621C25.9813 46.2494 25.5292 47.4691 25.0738 48.7195C25.0636 48.7484 25.0534 48.7774 25.0432 48.8046L27.2032 48.5679C27.1607 48.5593 27.1165 48.5542 27.074 48.5457C29.6572 48.2238 33.09 46.2886 35.3094 43.9003C36.3325 42.7998 37.2604 41.5018 38.1186 39.9822C38.7576 38.8511 39.3575 37.5973 39.9285 36.209C40.4281 34.9961 40.9074 33.6827 41.3696 32.2586C40.7765 32.572 40.0967 32.802 39.3473 32.9621C39.2164 32.9894 39.0822 33.0166 38.9462 33.0405C38.8103 33.0643 38.6726 33.0865 38.5333 33.1052C38.535 33.1052 38.5367 33.1035 38.5384 33.1035C40.9464 32.1751 42.4657 30.3813 43.5704 28.1855C42.9365 28.6182 41.9066 29.1855 40.6728 29.458C40.5046 29.4955 40.3329 29.5245 40.1596 29.55C40.1154 29.5568 40.0729 29.5636 40.0304 29.5688C40.0321 29.5688 40.0321 29.5671 40.0338 29.5671C40.0338 29.5671 40.0355 29.5671 40.0355 29.5654C40.8717 29.2144 41.5769 28.8226 42.1887 28.3593C42.3196 28.2605 42.447 28.1583 42.5694 28.0509C42.7563 27.8891 42.9331 27.7188 43.103 27.5399C43.2118 27.4258 43.3171 27.3082 43.4191 27.1856C43.6587 26.8994 43.883 26.591 44.0938 26.2555C44.1584 26.1532 44.2212 26.0493 44.2841 25.942C44.364 25.787 44.4405 25.6354 44.5152 25.4855C44.8517 24.8075 45.1202 24.2027 45.3344 23.6713C45.4414 23.4055 45.5349 23.1602 45.6148 22.9319C45.6471 22.8416 45.6776 22.7531 45.7065 22.6679C45.7915 22.4124 45.8612 22.1858 45.9156 21.9865C45.9971 21.6884 46.0464 21.4516 46.0736 21.2795C45.992 21.3443 45.8986 21.409 45.7932 21.472C45.0658 21.9081 43.8185 22.3033 42.8124 22.489L44.7956 22.271L42.8124 22.489C42.7971 22.4924 42.7818 22.4941 42.7665 22.4975C42.6663 22.5146 42.5643 22.5299 42.4623 22.5469C42.481 22.5384 42.4963 22.5299 42.515 22.5231L35.7292 23.2692C35.7173 23.2931 35.7054 23.3169 35.6918 23.3425Z" fill="url(#paint5_linear)"></path>
<path d="M43.3305 9.59252C42.7272 10.5209 42.0678 11.5754 41.3592 12.7695C41.3218 12.8309 41.2844 12.8956 41.247 12.9586C40.6352 13.9927 39.9843 15.1272 39.3011 16.3707C38.7097 17.4439 38.0946 18.5955 37.4556 19.8339C36.8982 20.9123 36.3221 22.057 35.7307 23.2682L42.5165 22.5221C44.4929 21.6107 45.3766 20.7862 46.2348 19.5938C46.4625 19.265 46.692 18.9209 46.9197 18.5648C47.6164 17.4746 48.2996 16.2736 48.9114 15.0795C49.5011 13.9262 50.0211 12.7832 50.4205 11.7526C50.6737 11.0967 50.8776 10.4869 51.0187 9.95196C51.1428 9.48009 51.2396 9.03207 51.3144 8.60449C48.6718 9.05592 45.4361 9.48861 43.3305 9.59252Z" fill="url(#paint6_linear)"></path>
<path d="M38.9461 33.0381C38.8101 33.0619 38.6725 33.0841 38.5331 33.1028C38.6725 33.0841 38.8101 33.0619 38.9461 33.0381Z" fill="#BE202E"></path>
<path opacity="0.35" d="M38.9461 33.0381C38.8101 33.0619 38.6725 33.0841 38.5331 33.1028C38.6725 33.0841 38.8101 33.0619 38.9461 33.0381Z" fill="#BE202E"></path>
<path d="M38.9461 33.0381C38.8101 33.0619 38.6725 33.0841 38.5331 33.1028C38.6725 33.0841 38.8101 33.0619 38.9461 33.0381Z" fill="url(#paint7_linear)"></path>
<path d="M40.0267 29.565C40.0709 29.5599 40.1134 29.5514 40.1559 29.5463C40.1134 29.5514 40.0709 29.5582 40.0267 29.565Z" fill="#BE202E"></path>
<path opacity="0.35" d="M40.0267 29.565C40.0709 29.5599 40.1134 29.5514 40.1559 29.5463C40.1134 29.5514 40.0709 29.5582 40.0267 29.565Z" fill="#BE202E"></path>
<path d="M40.0267 29.565C40.0709 29.5599 40.1134 29.5514 40.1559 29.5463C40.1134 29.5514 40.0709 29.5582 40.0267 29.565Z" fill="url(#paint8_linear)"></path>
<path d="M40.0317 29.5683C40.0317 29.5683 40.0335 29.5683 40.0335 29.5664C40.0335 29.5664 40.0317 29.5664 40.0317 29.5683Z" fill="#BE202E"></path>
<path opacity="0.35" d="M40.0317 29.5683C40.0317 29.5683 40.0335 29.5683 40.0335 29.5664C40.0335 29.5664 40.0317 29.5664 40.0317 29.5683Z" fill="#BE202E"></path>
<path d="M40.0317 29.5683C40.0317 29.5683 40.0335 29.5683 40.0335 29.5664C40.0335 29.5664 40.0317 29.5664 40.0317 29.5683Z" fill="url(#paint9_linear)"></path>
<path d="M53.376 6.59436V6.79367H53.8416V8.11218H54.0575V6.79367H54.5265V6.59436H53.376ZM56.0662 6.59436L55.5462 7.65394L55.0227 6.59436H54.7627V8.11218H54.9616V6.9078L55.4765 7.95205H55.6141L56.1291 6.9078V8.11218H56.3279V6.59436H56.0662Z" fill="#6D6E71"></path>
</g>
<defs>
<linearGradient id="paint0_linear" x1="42.7492" y1="6.10481" x2="57.7933" y2="1.93208" gradientUnits="userSpaceOnUse">
<stop stop-color="#F69923"></stop>
<stop offset="0.3123" stop-color="#F79A23"></stop>
<stop offset="0.8383" stop-color="#E97826"></stop>
</linearGradient>
<linearGradient id="paint1_linear" x1="9.83159" y1="73.7634" x2="40.5401" y2="8.06377" gradientUnits="userSpaceOnUse">
<stop offset="0.3233" stop-color="#9E2064"></stop>
<stop offset="0.6302" stop-color="#C92037"></stop>
<stop offset="0.7514" stop-color="#CD2335"></stop>
<stop offset="1" stop-color="#E97826"></stop>
</linearGradient>
<linearGradient id="paint2_linear" x1="20.1038" y1="68.9012" x2="38.4031" y2="29.7506" gradientUnits="userSpaceOnUse">
<stop stop-color="#282662"></stop>
<stop offset="0.0954839" stop-color="#662E8D"></stop>
<stop offset="0.7882" stop-color="#9F2064"></stop>
<stop offset="0.9487" stop-color="#CD2032"></stop>
</linearGradient>
<linearGradient id="paint3_linear" x1="10.9382" y1="69.7822" x2="41.6468" y2="4.08263" gradientUnits="userSpaceOnUse">
<stop offset="0.3233" stop-color="#9E2064"></stop>
<stop offset="0.6302" stop-color="#C92037"></stop>
<stop offset="0.7514" stop-color="#CD2335"></stop>
<stop offset="1" stop-color="#E97826"></stop>
</linearGradient>
<linearGradient id="paint4_linear" x1="14.0569" y1="65.4035" x2="30.1951" y2="30.8764" gradientUnits="userSpaceOnUse">
<stop stop-color="#282662"></stop>
<stop offset="0.0954839" stop-color="#662E8D"></stop>
<stop offset="0.7882" stop-color="#9F2064"></stop>
<stop offset="0.9487" stop-color="#CD2032"></stop>
</linearGradient>
<linearGradient id="paint5_linear" x1="17.7278" y1="72.9574" x2="48.4363" y2="7.25782" gradientUnits="userSpaceOnUse">
<stop offset="0.3233" stop-color="#9E2064"></stop>
<stop offset="0.6302" stop-color="#C92037"></stop>
<stop offset="0.7514" stop-color="#CD2335"></stop>
<stop offset="1" stop-color="#E97826"></stop>
</linearGradient>
<linearGradient id="paint6_linear" x1="15.4929" y1="76.8795" x2="46.2014" y2="11.1799" gradientUnits="userSpaceOnUse">
<stop offset="0.3233" stop-color="#9E2064"></stop>
<stop offset="0.6302" stop-color="#C92037"></stop>
<stop offset="0.7514" stop-color="#CD2335"></stop>
<stop offset="1" stop-color="#E97826"></stop>
</linearGradient>
<linearGradient id="paint7_linear" x1="19.7478" y1="73.899" x2="50.4533" y2="8.20386" gradientUnits="userSpaceOnUse">
<stop offset="0.3233" stop-color="#9E2064"></stop>
<stop offset="0.6302" stop-color="#C92037"></stop>
<stop offset="0.7514" stop-color="#CD2335"></stop>
<stop offset="1" stop-color="#E97826"></stop>
</linearGradient>
<linearGradient id="paint8_linear" x1="19.5087" y1="73.7896" x2="50.2087" y2="8.08356" gradientUnits="userSpaceOnUse">
<stop offset="0.3233" stop-color="#9E2064"></stop>
<stop offset="0.6302" stop-color="#C92037"></stop>
<stop offset="0.7514" stop-color="#CD2335"></stop>
<stop offset="1" stop-color="#E97826"></stop>
</linearGradient>
<linearGradient id="paint9_linear" x1="36.3459" y1="37.4754" x2="43.7216" y2="21.6576" gradientUnits="userSpaceOnUse">
<stop offset="0.3233" stop-color="#9E2064"></stop>
<stop offset="0.6302" stop-color="#C92037"></stop>
<stop offset="0.7514" stop-color="#CD2335"></stop>
<stop offset="1" stop-color="#E97826"></stop>
</linearGradient>
<clipPath id="clip0">
<rect width="72" height="72" fill="white"></rect>
</clipPath>
</defs>
</svg>