<svg width="928" height="454" viewBox="0 0 928 454" fill="none" xmlns="http://www.w3.org/2000/svg">
<path d="M26 96L16 106V112L44 84H73L105 116V131L115 141V180L151 216H163V228L177 242H205L232 269L226 275V302L254 330V371L244 381V436L261 453H266V449L259 442V429L267 421V400L336 331V313L345 304V294L336 285H316L296 265H287L274 252H248L239 261L208 230H183V210L195 198H214L224 208H230L221 199L239 181V171L267 143V130H291V112L271 92H257V81L248 72H235V126H226L220 120V111L191 82L224 49V29H187L177 39H138L124 25H68L60 17H22L5 34L19 48H1V71L26 96Z" fill="#DFE3ED"/>
<path d="M733 379H753L763 369H785L805 389H818L833 374V344L800 311V328L789 317H763L744 336H733V379Z" fill="#DFE3ED"/>
<path d="M810 159L807 162V176L796 187H786L772 201V190L781 181H790L801 170V154L804 151V131L772 163V179L768 183L750 165L743 172V184L752 193V204L733 223H718L710 231L719 240V248L709 258L698 247V261L710 273H702L691 262V239L674 222H664L645 241V262L626 243V230L605 209H577L565 197L559 203L573 217H588V228L577 239H553L539 225V213L528 202L522 208L530 216V232L548 250H569V260L540 289V318L528 330V352L503 377H481V355L471 345V296L463 288V277L453 267H412L392 247V215L422 185H434L440 179H456L472 195H529V180H507L524 163H544V157L531 144H510V155L497 168L476 147L470 153L485 168H477L464 155H450L429 176H413V156H433V136L455 114H479L496 97V64V53L483 66V88L468 103L454 89V74L470 58V45L490 25H525L547 47H554L566 35H592L626 1H817L831 15H840L850 25H904L927 48L920 55H898V65L882 81H868L858 91V112L846 124H841V98L865 74H850L835 89H806L788 107L810 129V159Z" fill="#DFE3ED"/>
<path d="M565 312L549 328V345L555 351L561 345V335L565 331V312Z" fill="#DFE3ED"/>
<path d="M429 107V95L413 111V123H420V107L427 114V125H437V115L429 107Z" fill="#DFE3ED"/>
<path d="M884 373V380L889 385V397H885L868 414L870 416H875L900 391V385H896L884 373Z" fill="#DFE3ED"/>
<path d="M712 287L706 281H702L689 268H682L696 282V286L713 303H735L732 300H721L716 295H712V287Z" fill="#DFE3ED"/>
<path d="M720 275H727L739 263L742 266V281L733 290H725L720 285V275Z" fill="#DFE3ED"/>
<path d="M777 286L783 292H788L801 305H807L811.5 300.5L819 308H826L816 298V295L808 286.5H791L789.25 288.25H785V283H777V286Z" fill="#DFE3ED"/>
<path d="M742 302V304H744L747 306L750 304H753L755 302H742Z" fill="#DFE3ED"/>
<path d="M758 279L757 280H751V286L753 288V292H748L746 290V285L752 279H758Z" fill="#DFE3ED"/>
<path d="M764 290H773L772 289H764V290Z" fill="#DFE3ED"/>
<path d="M813 398H820V401L816 405H813V398Z" fill="#DFE3ED"/>
<path d="M218 222H229L235 228H242L244 226H236L230 220H220L218 222Z" fill="#DFE3ED"/>
<path d="M249 229L246 232H257V231L255 229H249Z" fill="#DFE3ED"/>
<path d="M745 252L741 256V257L745 253V252Z" fill="#DFE3ED"/>
<path d="M749 233V250L754 245L760 251H763L753 241V233H749Z" fill="#DFE3ED"/>
<path d="M752 254L754 252L757 255V258L759 260L763 256V264L761 266L755 260L753 262V261L756 258L752 254Z" fill="#DFE3ED"/>
<path d="M753 213L749 217V222H753V217L755 215L753 213Z" fill="#DFE3ED"/>
<circle cx="721" cy="158" r="5" fill="#277CF9"/>
<circle cx="262" cy="140" r="5" fill="#277CF9"/>
<circle cx="518" cy="208" r="5" fill="#277CF9"/>
<circle cx="249" cy="256" r="5" fill="#277CF9"/>
<circle cx="528" cy="80" r="5" fill="#277CF9"/>
<circle cx="533" cy="278" r="5" fill="#277CF9"/>
<circle cx="40" cy="61" r="5" fill="#277CF9"/>
<circle cx="304" cy="326" r="5" fill="#277CF9"/>
<circle cx="120" cy="43" r="5" fill="#277CF9"/>
<circle cx="275" cy="110" r="5" fill="#277CF9"/>
<circle cx="758" cy="351" r="5" fill="#277CF9"/>
<circle cx="760" cy="90" r="5" fill="#277CF9"/>
<circle cx="570" cy="130" r="5" fill="#277CF9"/>
<circle cx="704" cy="22" r="5" fill="#277CF9"/>
<circle cx="178" cy="158" r="5" fill="#277CF9"/>
</svg>
