<svg width="72" height="72" viewBox="0 0 72 72" fill="none" xmlns="http://www.w3.org/2000/svg">
<g clip-path="url(#clip0)">
<path d="M41.1603 5.14404C40.5635 6.53645 40.6961 8.19408 40.2983 9.7191C40.1657 10.0506 39.8342 11.1115 39.37 11.0452C38.3755 10.9126 38.9059 8.98974 37.7124 8.92344L38.0439 11.7083C36.32 11.9072 36.5189 9.18866 35.8559 8.12778C35.0602 6.86798 34.8613 8.72452 34.9276 9.25496C34.9939 9.65279 35.0602 9.98432 35.0602 10.3158C35.1265 10.9789 35.1265 11.5093 35.0602 12.1061C33.4026 12.1061 33.9993 9.91802 32.8058 9.58649L32.8721 12.2387C31.0156 12.2387 30.2199 10.5811 29.358 9.12235C29.0264 8.52561 28.5623 7.39842 27.7666 7.72994C28.1645 9.38757 29.0264 10.9126 29.159 12.6365C29.159 13.1007 28.7612 14.2279 28.1645 13.9626C26.7721 13.4985 26.971 10.9126 25.7775 10.2495C25.5123 10.1169 25.1807 10.2495 24.9155 10.2495C24.9155 11.5756 25.5123 13.2333 25.9764 14.4931C26.109 14.7583 26.3742 15.7529 25.7775 15.6866C24.7166 15.6866 24.4514 13.5648 23.3905 13.83C23.5231 14.3605 23.8546 14.8246 24.0535 15.355C24.1862 15.6866 24.3851 16.0181 24.4514 16.3496C24.584 17.079 23.6557 17.1453 23.1253 17.0127C21.9981 16.6811 21.1361 15.7529 20.3405 14.8909C20.1415 14.692 19.4785 13.83 19.147 14.2279C18.7491 14.6257 19.5448 15.355 19.81 15.6203C20.5394 16.4159 21.2687 17.4105 21.6003 18.4051C21.7329 18.8692 21.7992 19.466 21.335 19.7975C20.8709 20.129 20.2078 19.5323 19.81 19.3334C18.7491 18.604 17.6219 17.3442 16.2958 17.3442L15.9643 18.1399L16.8263 19.3334L19.0807 21.8529L16.4285 20.7921C16.5611 21.4551 18.2187 22.3171 17.8872 23.0464C17.6883 23.4443 16.76 23.4443 16.3621 23.4443C15.036 23.2454 14.0415 22.2508 12.848 21.9193C11.7208 21.5877 11.9197 22.4497 12.5828 22.9801C12.7817 23.1791 12.9806 23.3117 13.2458 23.5106C13.6436 23.8421 13.9752 24.1736 14.3067 24.5052C14.8371 25.0356 15.3676 25.6323 15.8317 26.2291L13.1795 26.1628V26.3617L15.6991 27.5552L15.235 29.3454C14.5056 29.3454 13.9089 29.1465 13.2458 28.8813C12.7817 28.6824 12.3175 28.3509 11.7871 28.4172C11.1903 28.4835 10.7925 29.0139 11.1903 29.5444C11.7871 30.34 13.0469 30.8041 13.8426 31.4009C14.1741 31.6661 14.5719 32.0639 14.2404 32.4618C13.5773 33.2574 11.7208 32.2629 10.8588 32.5281V32.727C11.7208 33.1911 13.3784 33.4564 13.8426 34.3846C14.2404 35.114 13.1132 36.639 12.3838 36.5727C11.7208 36.5064 11.0577 35.777 10.5936 35.3129C9.40011 34.3183 8.074 33.1911 6.68159 32.5281C4.29461 31.4009 1.84132 33.1911 -0.0152283 34.3846C0.249992 35.1803 1.17827 34.3183 1.77501 34.4509C2.57067 34.6499 3.23373 35.3792 3.76417 35.976C6.28376 38.8934 8.40553 42.2086 9.3338 45.988C9.59902 46.9826 9.99685 48.1761 9.2675 49.0381C9.06858 49.3033 8.80336 49.3033 8.53814 49.5022C8.40553 49.6348 8.40553 49.8337 8.60444 49.9C9.00227 50.0327 9.59902 49.8337 10.0632 49.7674C11.3893 49.4359 12.9143 48.7065 13.511 47.4468C13.9089 46.6511 14.0415 45.0598 14.9697 44.7282C15.1687 45.5902 16.1632 46.7837 16.0306 47.6457C15.9643 48.4413 15.1023 49.3033 14.6382 49.9C14.4393 50.099 14.0415 50.5631 14.3067 50.8283C14.5719 51.0935 15.036 50.4968 15.235 50.3642C15.898 49.7011 17.423 48.7065 17.8209 50.1653C18.1524 51.4914 17.0252 53.5468 16.4948 54.7403C16.3621 55.0718 15.6328 56.0664 15.898 56.398C16.2295 56.7958 16.8926 55.7349 17.0915 55.536C17.6883 54.8066 19.6774 52.5522 20.7383 53.3479C22.0644 54.3425 21.6003 55.0055 21.0698 56.3316C20.9372 56.7295 20.4068 57.6577 20.7383 57.9893C21.0698 58.3208 21.534 57.9893 21.6666 57.7241C21.9981 57.1273 22.7937 55.4034 23.6557 55.8012C24.1862 56.0664 24.9818 56.5306 25.3133 57.061C25.7775 57.8567 25.3797 59.5143 25.247 60.3763C25.1807 60.9067 24.6503 62.498 25.0481 62.8296C25.446 63.1611 25.8438 62.1665 25.9101 61.9013C26.3742 61.0393 26.9047 60.111 27.5677 59.3817C27.8329 59.1165 28.1645 58.6523 28.5623 58.7186C30.6841 59.1165 28.496 61.2382 29.358 62.2991C29.5569 62.498 30.021 62.498 30.2862 62.5643L31.3471 59.7795C31.8776 59.9784 32.7395 60.0447 33.1374 60.5089C33.4689 60.9067 33.5352 61.5698 33.6678 62.0339C33.933 63.4263 34.0656 64.7524 33.933 66.1448C34.1319 66.2774 34.3972 66.5426 34.5961 66.41C34.8613 66.2111 34.9276 65.4818 35.0602 65.1502C35.3917 64.1557 35.8559 63.1611 36.32 62.2328C36.6515 61.6361 37.4472 60.973 38.0439 61.835C38.6407 62.6969 38.3755 64.2883 38.7733 65.2828C39.7679 64.8187 39.8342 62.8296 39.8342 61.835L41.094 62.0339L41.8233 63.5589L43.1494 67.4709C43.8788 67.2057 43.6136 65.8796 43.6799 65.2165C43.8125 64.3546 44.0114 62.5643 44.6082 61.9013C44.8734 61.6361 45.4038 61.6361 45.7353 61.5034C46.1332 62.4317 46.3321 63.4926 46.7962 64.4209C46.9951 64.7524 47.393 65.1502 47.7908 64.9513C48.1886 64.7524 48.1886 64.2883 48.1223 63.8904C47.9897 62.9622 47.7908 62.0339 47.7245 61.1056C49.5147 60.973 50.5756 62.4317 51.7028 63.6252C52.1669 64.0893 52.4985 64.6861 53.1615 64.885L52.2332 62.1665L51.7028 59.6469C52.3659 59.3817 53.7583 58.0556 54.4213 58.2545C55.4159 58.5197 56.2116 61.4371 57.5377 60.7078C58.0681 60.4426 57.8029 59.9121 57.5377 59.5806C57.1398 58.9839 56.0126 57.6578 56.1452 56.9284C56.2116 56.398 57.1398 55.8012 57.604 55.8012C58.7975 55.8012 60.8529 56.7295 61.516 57.6577L62.3116 57.5914C62.179 55.9338 59.7257 55.2045 59.3942 53.6131C59.3279 53.4805 59.3942 53.2816 59.3942 53.0827C59.6594 52.0218 60.2562 52.4859 60.9192 52.7512C61.1181 52.8175 61.5823 53.0827 61.7149 52.8175C61.9138 52.5522 61.5823 52.1544 61.4497 51.9555C61.1844 51.4914 60.9855 50.9609 61.0518 50.4305C61.9138 50.6294 62.4442 51.1598 63.1736 51.624C63.3725 51.7566 63.704 52.0218 63.903 51.8892C64.1019 51.7566 63.7703 51.3588 63.704 51.2925C63.3725 50.8946 62.3779 50.0326 62.5105 49.5022C62.5769 49.1044 63.1736 48.7729 63.4388 48.5076C64.3008 47.6457 65.2291 46.85 65.8921 45.8554H65.9584C67.5497 47.712 72.5889 46.3859 71.9259 43.601C71.528 43.6674 71.1302 43.9989 70.7324 43.8C68.9421 43.2032 69.4063 40.2858 67.3508 40.2858C67.2182 38.4292 66.4226 36.5727 65.5606 34.9151C65.1628 34.1857 64.3008 33.4564 63.9693 32.727C63.7703 32.3292 63.8366 31.6661 63.8366 31.202C64.8975 31.0694 64.3671 29.9422 63.9693 29.4117C63.5714 28.7487 63.1073 27.953 62.5105 27.4226C61.8475 26.7595 60.7866 26.2954 60.9192 25.1682C60.9855 24.1073 62.8421 24.2399 63.1736 23.2454C62.6432 23.2454 62.1127 23.378 61.516 23.5106C60.1899 23.7095 59.9246 23.3117 60.5877 22.0519C61.1181 20.991 62.0464 20.1953 62.7758 19.3334C63.041 19.0681 63.7703 18.4051 63.3725 18.0072C63.041 17.6757 62.5105 18.2062 62.2453 18.3388C61.2507 19.0018 60.1236 19.466 58.9964 19.8638C58.6648 19.9964 57.6703 20.3942 57.5377 19.7312C57.405 18.9355 58.9301 18.7366 58.7312 17.8083C58.1344 17.9409 56.8746 18.9355 56.2779 18.4714C55.5485 17.9409 56.6094 16.5485 56.742 15.8855C56.8746 15.2224 56.3442 15.2224 55.9463 15.6203C55.8137 15.7529 55.6811 15.8855 55.6148 16.0844C55.4159 16.3496 55.217 16.6148 55.0844 16.8801C53.6257 16.0181 56.4105 15.0235 55.88 14.2279C55.6811 13.9626 55.3496 14.2279 55.1507 14.3605C54.8191 14.692 53.493 16.217 53.1615 15.0898C52.83 13.83 53.493 12.3713 53.8246 11.1778C53.8909 10.8463 54.2887 10.0506 53.8909 9.85171C53.3604 9.52018 53.0952 10.5811 52.9626 10.9126C52.5648 11.9072 51.9017 12.7691 51.1061 13.4322C50.8408 13.6311 50.3767 14.0952 50.0452 14.0289C49.5147 13.8963 49.4484 12.305 49.5147 11.8409C49.5147 11.642 49.6473 11.2441 49.4484 11.0452C49.1832 10.8463 48.9843 11.2441 48.9843 11.443C48.8517 12.1061 48.4539 14.0289 47.4593 12.7691C46.531 11.642 47.9234 9.25496 46.1332 8.79083L45.1386 11.9735C43.9451 11.7083 44.2103 9.98432 44.4755 9.05605L43.9451 8.85713C43.8788 9.25496 43.7462 9.58649 43.6136 9.91802C43.1494 11.3104 42.4864 11.5093 41.9559 9.98432C41.5581 8.79083 41.6907 7.53103 41.4918 6.33754C41.6907 5.8734 41.6907 5.34296 41.1603 5.14404Z" fill="black"></path>
<path d="M41.2934 7.86243C41.227 10.4483 40.4314 12.4375 37.5803 12.4375L38.5748 16.5484C37.514 15.4212 37.1161 13.8299 36.5857 12.3712C36.2542 11.4429 35.8563 10.5146 35.7237 9.58636H35.6574C35.7237 11.244 36.0552 12.8353 35.7237 14.4929C35.5248 15.4212 35.0607 16.0843 34.7954 16.9462H34.7291L35.2596 12.9679C33.2041 13.1005 31.4802 13.4321 30.1541 11.5092C29.8889 11.1114 29.6236 10.5809 29.4247 10.1168H29.3584C29.5573 11.6418 30.9497 13.4321 29.3584 14.6919C29.0932 14.8908 28.828 15.0234 28.5628 15.0897L30.0215 17.2778L30.8834 18.405C28.5628 16.8799 27.2367 14.2277 26.0432 11.7744H25.9769C26.2421 13.7636 27.4356 15.4875 27.7671 17.4767C27.8997 18.1397 28.1649 19.1343 27.5019 19.6647L26.7725 16.2169C25.7116 16.7473 24.916 18.405 23.5236 18.206C22.9268 18.1397 22.4627 17.6093 21.8659 17.4104C22.1312 18.2723 22.8605 19.0017 22.4627 19.93C22.3301 20.2615 21.9985 20.5267 21.7996 20.8582L24.7171 21.9191C24.1866 22.5822 23.0594 22.0517 22.4627 21.7865C21.2692 21.1898 20.2083 20.4604 19.0811 19.7311C18.4844 19.2669 17.755 18.6702 16.9594 18.5376C17.4235 19.5321 18.617 20.3941 19.4126 21.1235C20.0757 21.7202 20.5398 22.4496 21.1366 23.1126C21.667 23.7757 22.3964 24.5713 22.1312 25.4996C21.1366 24.505 20.3409 23.842 18.8822 24.1735C18.3518 24.3061 17.8876 24.6376 17.3572 24.5713C16.3626 24.5713 15.368 24.0409 14.4398 23.6431C14.9702 24.7702 16.3626 25.4333 16.6941 26.7594C16.893 27.754 16.23 28.9475 16.0974 29.942L19.2137 30.4062V30.6051C16.5615 31.3345 14.705 29.8757 12.1854 29.4116V29.4779C13.843 30.2736 15.7659 31.5997 16.9594 32.9921C17.4235 33.5225 17.9539 34.1193 17.9539 34.7823C17.4898 34.3845 16.5615 33.3236 15.8322 33.4562C15.3017 33.5225 15.1028 34.1193 15.0365 34.5834C14.8376 35.8432 14.8376 37.1693 14.8376 38.4291C14.3071 37.965 14.3735 37.3682 14.3735 36.7052C13.7104 37.103 13.0473 37.6334 12.1854 37.5008C11.3234 37.3019 10.5278 36.3073 9.931 35.7106C8.80382 34.5834 7.47771 33.4562 5.82008 33.191C4.95812 33.0584 2.37221 33.191 3.4994 34.5171C3.63201 34.6497 3.76462 34.7823 3.89723 34.8486C4.49398 35.1802 5.82008 34.7823 6.54944 34.7823V34.8486L4.29506 35.3128C5.22334 37.2356 7.21249 35.5117 8.27337 36.7052C7.54402 36.5063 6.21791 36.5063 5.48856 36.7052L6.74836 38.3628L7.3451 39.1585L9.46687 39.4237V39.49H7.54402C7.67663 40.4846 8.80381 40.2194 9.53317 40.153V40.2194L8.00815 40.4846C8.27337 41.015 8.87012 42.7389 9.40056 43.0042C9.8647 43.2031 10.4614 42.8053 10.793 42.6063C10.2625 43.5346 9.40056 43.1368 9.8647 44.3966L11.3234 43.6672C10.9919 44.0651 10.4614 44.3303 10.2625 44.7281C9.99731 45.2585 10.4614 46.1205 10.5941 46.651L12.0528 45.5901L10.6604 47.1151L10.793 48.7727C11.9865 48.2423 12.981 47.3803 13.5115 46.1205C13.7104 45.5901 13.7767 44.9933 13.9756 44.5292C14.1745 44.1977 14.705 44.264 14.8376 43.8661C15.0365 43.1368 14.5724 42.54 14.9702 41.8107H15.0365L15.3017 43.2694C16.23 43.0042 16.7604 41.5455 17.0257 40.7498H17.2246C17.4898 41.9433 16.4289 42.6726 16.0311 43.6672C16.6941 43.7998 17.8213 44.1314 17.755 44.927L15.5006 44.1314L17.2246 47.9771H17.2909C18.1528 46.7173 18.9485 44.7281 20.0757 43.7998C20.4735 45.1259 19.0811 46.2531 18.5507 47.314C19.3463 47.1151 20.7387 46.0542 21.4681 46.5183C20.4735 46.9162 19.5453 47.5129 18.8159 48.3086C18.5507 48.5738 18.1528 49.0379 18.1528 49.3695C18.1528 49.7673 18.617 50.2314 18.8822 50.563C19.6779 51.6901 20.6061 52.8836 21.8659 53.5467C22.3301 52.6184 22.7942 51.6901 23.0594 50.6293C23.192 50.1651 23.192 49.5021 23.5899 49.2369C24.054 51.7564 22.2638 54.5413 21.667 56.8619C23.391 55.4032 24.3855 53.0826 26.5736 52.1543C26.5073 53.3478 24.6508 53.9445 24.5181 55.2706C24.4518 55.7348 25.0486 55.9337 25.3801 56.1989C26.2421 56.7956 27.0377 57.4587 28.0323 57.9228C28.3638 58.0554 28.7617 58.387 29.0932 58.0554C29.6899 57.3924 29.7563 56.1989 29.6899 55.3369C29.6236 54.8065 29.4247 54.0108 29.8226 53.613L30.4856 57.3261L30.1541 61.7022H30.2204C31.0824 59.5142 31.8117 57.1935 33.4693 55.5358C33.4693 56.663 32.2095 58.2544 31.7454 59.3815C33.4693 60.1772 35.4585 60.6413 37.315 61.0392C37.4477 59.912 37.4477 58.7848 37.1161 57.6576C36.9835 57.1272 36.5194 56.4641 36.8509 56C37.9781 58.4533 39.2379 60.9066 39.2379 63.6251H39.3042C39.3042 61.9675 39.5694 60.2435 39.9009 58.6522C39.9673 58.387 40.0336 57.1272 40.4977 57.1272C40.9618 57.1272 40.7629 57.8565 40.7629 58.1217C40.564 59.2489 40.2988 60.3761 40.1662 61.5033L44.0782 61.437L45.4706 61.1718L45.4043 59.7794L43.5477 56.5304C44.2771 56.3978 44.9401 57.6576 45.2717 58.188C46.4652 60.1109 47.2608 62.6305 47.7913 64.8186H47.8576C47.5923 61.8348 46.863 59.05 47.1945 56C48.0565 56.3315 47.5923 58.5859 47.725 59.4479C47.7913 59.7131 47.725 60.4424 48.0565 60.575C48.388 60.7076 48.9184 60.4424 49.1837 60.3098C50.2446 59.9783 51.2391 59.4479 52.3 58.9837C52.6978 58.7848 53.2283 58.5859 53.2946 58.1217C53.3609 56.3978 51.8359 55.8674 50.775 54.9391C51.7033 54.8728 52.3663 55.4695 53.0294 56C54.0239 56.7956 55.0848 57.7239 55.8805 58.7185C56.3446 59.3152 56.7425 60.0446 57.2729 60.5087C56.9414 59.5142 56.212 58.5859 55.7479 57.7239C54.8196 55.9337 54.1566 54.0108 53.8913 52.0217H53.9576L55.6816 56.5967C56.6098 56.2652 57.4055 55.138 58.0023 54.4087C58.2675 54.0771 58.599 53.7456 58.599 53.3478C60.124 52.8173 58.2012 51.5575 57.8696 51.0934C58.9305 50.9608 59.8588 51.9554 60.8534 52.1543C60.3892 51.226 59.6599 49.9662 59.8588 48.9053H60.0577L60.7208 50.6956C62.3121 49.2369 64.1686 47.7118 65.3621 45.8553C67.0198 43.2694 67.0198 40.0204 65.8263 37.2356C65.4947 36.5063 65.2295 35.3791 64.6328 34.7823C63.8371 33.9204 63.1078 35.3791 63.0415 36.0421C63.4393 36.1084 63.7708 36.241 64.1023 36.44C65.3621 37.3019 65.4284 38.7606 64.898 40.0204C64.6991 40.5509 64.3013 41.0813 64.2349 41.6781C64.1686 42.4074 64.5665 43.1368 64.6991 43.8661C64.898 45.0596 64.3012 46.3194 63.4393 47.1151C62.6436 47.8444 61.5164 48.2423 60.4555 48.1097C59.9251 48.0434 59.3947 47.5792 58.9305 47.7781C58.1349 48.0434 58.0023 49.3032 57.4718 49.8999C57.2729 48.5075 58.2675 47.7781 58.5327 46.5183C58.6653 45.9216 58.2012 44.8607 58.0023 44.264C57.8696 43.7998 57.6044 42.4737 56.8751 42.7389C56.4109 42.9379 56.1457 43.4683 55.8805 43.7998C55.2174 44.7281 54.6207 45.789 53.4935 46.0542C53.8913 44.9933 55.0848 44.0651 55.6816 43.0705C56.9414 41.0813 58.3338 37.7661 56.6098 35.6443C56.0794 34.9812 55.2837 34.5171 54.5544 34.1856C53.5598 33.7214 52.4326 33.5888 51.3717 33.2573V33.0584L52.6315 32.8595L52.3663 30.8703L51.5707 31.1355C51.5707 27.8203 54.8859 25.9637 57.2066 24.2398L56.8088 25.4333L57.936 27.1572L60.1903 30.6714L59.2621 30.6051C59.461 31.9312 59.7262 33.1247 59.2621 34.4508C58.9968 35.3128 58.2675 35.9758 58.0023 36.8378C57.8696 37.2356 58.0686 37.6998 58.0686 38.0976C58.0686 38.6943 57.8696 39.2248 57.737 39.8215C59.3947 39.0259 59.6599 36.6389 61.3838 36.1084C61.2512 35.3128 60.9197 34.5834 60.8534 33.7214C60.7208 31.9312 61.0523 30.141 60.7871 28.3507C60.4555 26.3616 59.6599 24.6376 58.9305 22.7811L59.7262 23.1126C59.9251 21.8528 60.9197 21.1898 61.649 20.1952C60.5882 20.593 58.9968 21.8528 57.8033 21.1898C57.0077 20.7256 56.7425 19.6647 55.8805 19.2669L54.8196 23.6431H54.7533C54.2892 21.6539 55.2837 19.7311 55.7479 17.8082C54.3555 18.9354 53.4272 20.3278 51.5044 20.593L54.1566 18.6702L54.7533 17.8082L53.9576 17.1452L51.9685 15.6864L52.8968 15.8854L53.2283 12.9679H53.162C52.9631 13.2995 52.6978 13.631 52.4326 13.9625C52.0348 14.3603 51.5707 15.0234 51.0402 15.2223C49.9793 15.5538 48.5206 14.3603 47.526 14.0951V18.2723C46.5978 18.1397 46.7304 17.2115 46.7304 16.3495C46.7304 14.5592 46.6641 12.769 46.7304 10.9788H46.6641C46.3988 12.9679 45.7358 15.8854 43.7466 16.8799C44.3434 15.9517 44.8738 15.2223 45.1391 14.1614C45.2054 13.8299 45.4706 13.2995 45.1391 13.1005C44.2108 12.4375 42.8184 12.9679 42.089 11.907C41.227 10.3157 41.7575 8.98961 41.2934 7.86243Z" fill="url(#paint0_radial)"></path>
<path d="M35.7238 9.78467L35.7922 9.85304L35.7238 9.78467Z" fill="#0F0D06"></path>
<path d="M40.4977 14.1616L39.039 20.7258C40.1662 20.0628 40.3651 17.5432 40.4977 16.3497H40.564C40.7629 17.4106 40.8292 18.4715 41.2933 19.466C41.4923 19.8639 41.6249 20.3943 42.1553 20.3943L40.9618 16.2834L40.4977 14.1616Z" fill="black"></path>
<path d="M31.5464 15.2891C31.5464 17.6097 32.7399 19.7315 32.2758 22.1185C32.7399 21.8533 32.7399 21.2565 32.7399 20.7924C32.7399 19.6652 32.541 18.6043 32.541 17.5434H32.6073C32.9389 18.6706 33.8008 20.8587 35.0606 20.9913C34.928 20.3946 34.3976 19.9304 34.1324 19.4663C33.403 18.2728 32.7399 16.0184 31.5464 15.2891Z" fill="black"></path>
<path d="M50.1783 16.3489C49.1837 17.9402 47.9903 20.1283 46.4652 21.2555V21.3218C47.5924 21.1228 48.8522 19.6641 49.1837 18.6033H49.2501C49.2501 20.1946 48.5207 21.9185 49.1837 23.5098H49.2501C49.7142 21.8522 49.449 19.9294 49.9131 18.2054C50.0457 17.675 50.5099 16.813 50.1783 16.3489Z" fill="black"></path>
<path d="M44.2109 19.9298C43.6805 21.1233 43.4153 22.2505 42.2881 23.1125V23.3114C43.0837 23.5103 43.6142 22.5157 43.8131 21.8527H43.8794C43.9457 22.4494 44.012 23.7092 44.6751 23.9744L44.2109 21.8527V19.9298V19.9298Z" fill="black"></path>
<path d="M24.7172 20.0629C24.9161 22.3172 27.8998 23.8423 27.502 26.2292C27.9661 25.964 27.8335 25.4336 27.7009 24.9694C27.3694 24.0412 26.7727 23.1792 26.4411 22.2509C27.3031 23.0466 28.6292 23.9749 29.8227 23.4444L27.8998 22.6488L24.7172 20.0629Z" fill="black"></path>
<path d="M37.3152 20.7924C37.0499 21.7206 36.2543 23.4446 36.5858 24.3065H36.7184L37.3815 22.1185H37.4478C37.6467 22.9141 37.9119 24.1739 38.9065 24.3065L37.4478 20.7924H37.3152Z" fill="black"></path>
<path d="M31.2151 23.0461L31.6793 26.8918H31.8782L31.8119 24.1733C32.4086 24.5712 33.2043 25.632 34 25.2342C33.6684 24.9027 33.2706 24.8364 32.9391 24.5712C32.276 24.107 31.9445 23.1124 31.2151 23.0461Z" fill="black"></path>
<path d="M51.1727 23.576C50.2445 24.5706 49.3825 25.1674 48.0564 25.5652V25.7641C48.8521 25.963 49.5814 25.5652 50.2445 25.1011C50.1119 25.6315 49.4488 27.0239 49.9792 27.3554L50.8412 24.7032L51.1727 23.576Z" fill="black"></path>
<path d="M52.1673 29.4785C54.2228 28.948 56.5435 28.6828 58.5989 29.147C58.2674 28.0861 57.4717 27.1578 56.7424 26.3622C56.4772 26.0969 56.2119 25.5665 55.7478 25.5002C55.2837 25.4339 54.8195 25.9643 54.488 26.2295C53.5597 26.9589 52.6315 28.285 52.1673 29.4785Z" fill="url(#paint1_radial)"></path>
<path d="M35.6573 25.6979L35.1269 28.4827C35.591 28.1512 35.6573 27.024 35.7899 26.4935L36.5856 27.4218C36.453 26.8251 36.1215 26.0957 35.6573 25.6979Z" fill="black"></path>
<path d="M44.5422 25.9629L42.8183 27.6868L44.4759 26.4933L44.7412 28.151C45.0727 27.6868 44.8738 26.3607 44.5422 25.9629ZM25.3138 26.2281C26.1094 27.0901 26.7062 28.151 27.1703 29.0792C27.4355 29.6097 27.3692 30.2064 27.8997 30.5379C27.8333 29.4771 27.3692 28.6814 26.9714 27.7531C27.6344 28.151 28.4964 28.6814 29.2258 28.4825V28.2836C28.1649 27.8194 27.3692 27.4216 26.5072 26.6922C26.1757 26.427 25.7779 26.0292 25.3138 26.2281Z" fill="black"></path>
<path d="M19.2138 27.025C19.2801 27.8207 19.9432 28.0859 20.4736 28.4837C21.2693 29.0805 21.9323 29.6772 22.5291 30.4729C22.9269 31.0033 23.1258 31.8653 23.6563 32.1968C23.5236 30.8707 22.7943 29.2794 21.4682 28.749V28.6827C22.7943 28.9479 24.0541 29.412 25.3802 28.8816V28.6827L23.8552 28.6163L19.2138 27.025Z" fill="black"></path>
<path d="M61.4503 27.2899L61.6492 29.478L63.6384 29.7432C63.3068 28.8812 62.3786 27.6877 61.4503 27.2899Z" fill="url(#paint2_radial)"></path>
<path d="M39.4366 27.423L38.641 28.948L39.5692 27.9534L40.0997 28.8817L39.4366 27.423Z" fill="black"></path>
<path d="M48.189 29.6104L46.6639 30.8038L48.0563 30.0745L47.8574 31.1354C48.189 30.8702 48.3879 30.0082 48.189 29.6104Z" fill="black"></path>
<path d="M57.2731 35.0486C57.9361 34.7171 58.2676 33.9214 58.4666 33.2584C58.6655 32.3964 58.997 30.0757 57.8698 29.6779C57.2731 29.4127 56.2785 29.7442 55.6154 29.7442C55.0187 29.7442 53.7589 29.6779 53.2947 30.0757C52.8969 30.4736 53.1621 31.9986 53.4937 32.3964C53.8252 32.7943 54.5545 32.9269 55.085 33.1258C56.0133 33.5236 56.8089 34.1204 57.2731 35.0486Z" fill="white"></path>
<path d="M63.1077 29.6768L63.174 29.7431L63.1077 29.6768ZM63.6381 29.6768L63.5718 29.8757L63.6381 29.6768Z" fill="#0D0B05"></path>
<path d="M63.6382 29.7434L63.7065 29.8118L63.6382 29.7434Z" fill="white"></path>
<path d="M61.4503 30.1414V30.937C63.1079 30.3403 63.4394 32.7273 61.7155 32.661L62.047 34.7827C63.2405 34.186 63.8373 31.4675 62.8427 30.4729C62.5775 30.1414 61.8481 30.1414 61.4503 30.1414Z" fill="white"></path>
<path d="M62.8424 30.3398L62.9108 30.4082L62.8424 30.3398Z" fill="#020202"></path>
<path d="M56.8088 30.4729C56.6098 30.6718 56.3446 30.8044 56.212 31.0696C55.2837 32.7273 58.8642 32.7273 57.8696 31.0033C57.737 30.8044 57.5381 30.6718 57.3392 30.5392L56.8088 30.8044V30.4729Z" fill="black"></path>
<path d="M56.9415 30.4729L57.273 30.5392L56.9415 30.4729Z" fill="#020202"></path>
<path d="M61.7154 30.7378L61.9806 30.9367V30.8704L61.7154 30.7378Z" fill="#020202"></path>
<path d="M37.7128 30.8708C37.7128 31.335 37.6465 31.7991 38.0443 32.0643V31.1361L39.1052 31.4676L37.7128 30.8708Z" fill="black"></path>
<path d="M61.649 30.8708L61.8479 31.0698V30.8708H61.649Z" fill="#010101"></path>
<path d="M43.2827 32.1303L43.7468 31.3347L44.2772 31.6662C43.8794 30.6053 43.2827 31.401 43.2827 32.1303Z" fill="black"></path>
<path d="M32.2759 31.1358C32.4086 31.7326 32.6738 32.1967 33.2042 32.5945L32.6738 31.401L33.7346 31.4673C33.4694 31.0032 32.8064 31.1358 32.2759 31.1358Z" fill="black"></path>
<path d="M27.6346 31.666L28.8944 33.191L28.165 31.9312L29.2259 31.7323L29.1596 31.4008L27.6346 31.666Z" fill="black"></path>
<path d="M60.9861 31.4008V31.666H61.0524L60.9861 31.4008Z" fill="white"></path>
<path d="M60.9861 31.7987V32.0639H61.0524L60.9861 31.7987Z" fill="white"></path>
<path d="M62.909 31.8652L62.9773 31.9336L62.909 31.8652Z" fill="#010101"></path>
<path d="M62.7098 32.3298L62.7782 32.3982L62.7098 32.3298Z" fill="#050505"></path>
<path d="M18.4842 34.2511V34.45L21.1364 35.3783C21.0701 34.7152 20.2081 34.45 19.6114 34.3837L21.4016 32.7261C20.407 32.5935 19.2799 33.7207 18.4842 34.2511Z" fill="black"></path>
<path d="M61.9806 32.5947L62.2458 32.661L61.9806 32.5947Z" fill="#010101"></path>
<path d="M22.2638 33.8543V34.0532L24.253 34.7826L25.4464 35.5783C25.3138 34.5837 24.3193 34.4511 23.6562 33.9206C24.5182 33.788 25.6454 33.7217 26.0432 32.8597L22.2638 33.8543Z" fill="black"></path>
<path d="M63.174 33.1246L63.2424 33.193L63.174 33.1246Z" fill="#0E0D08"></path>
<path d="M63.174 33.2577L63.2424 33.3261L63.174 33.2577Z" fill="#020202"></path>
<path d="M61.8478 33.6545L61.9141 33.7872L61.8478 33.6545Z" fill="#010101"></path>
<path d="M35.127 34.5172L35.3922 33.8541C34.9943 33.9204 34.6628 34.252 35.127 34.5172Z" fill="black"></path>
<path d="M62.6436 34.3187L62.7119 34.3871L62.6436 34.3187Z" fill="#020202"></path>
<path d="M38.3759 34.384L38.3096 35.0471C38.5749 34.8482 38.6412 34.7156 38.5749 34.384H38.3759Z" fill="black"></path>
<path d="M42.2215 35.0471L42.4868 34.384C42.0889 34.5166 41.8237 34.7819 42.2215 35.0471Z" fill="black"></path>
<path d="M62.5773 34.384L62.6457 34.4524L62.5773 34.384Z" fill="#020202"></path>
<path d="M44.9401 35.5781V35.9096L45.8683 35.2466L44.9401 35.5781Z" fill="black"></path>
<path d="M49.2501 35.3784V36.4393C49.648 36.1741 49.648 35.7099 49.2501 35.3784Z" fill="black"></path>
<path d="M65.0968 35.3784L65.1652 35.4468L65.0968 35.3784Z" fill="#0D0B05"></path>
<path d="M31.3476 37.2349L32.4085 37.5001L31.8117 36.9033L32.1433 36.0414C31.7454 36.2403 31.4802 36.7707 31.3476 37.2349Z" fill="black"></path>
<path d="M57.7369 40.0213C59.9913 40.3528 61.0522 39.2919 62.7098 37.9658C62.4446 38.6289 61.2511 39.4245 61.3174 40.0876C61.3837 40.7506 62.3783 40.8169 62.8424 40.618C63.7044 40.2865 64.2348 39.3582 64.4337 38.43C64.8316 36.6397 62.4446 35.1147 60.9196 36.3082C59.6598 37.3691 59.063 39.0267 57.7369 40.0213Z" fill="url(#paint3_radial)"></path>
<path d="M14.9037 38.0312C15.0364 38.6943 15.6994 38.3627 16.1635 38.2964C16.8266 38.2301 18.1527 38.4954 18.5505 39.0921L19.2136 39.0258C19.081 37.9649 17.556 38.0312 16.7603 37.9649C17.357 37.3682 18.219 37.1692 18.4179 36.241L14.9037 38.0312Z" fill="black"></path>
<path d="M64.4339 36.241L64.5022 36.3093L64.4339 36.241Z" fill="#0D0B05"></path>
<path d="M65.5611 36.374L65.6294 36.4424L65.5611 36.374Z" fill="#0D0B05"></path>
<path d="M35.9226 36.9705L34.928 38.2302L36.1878 38.6944L35.2596 38.1639C35.4585 37.7661 36.1878 37.3683 35.9226 36.9705Z" fill="black"></path>
<path d="M64.1686 36.9705L64.237 37.0388L64.1686 36.9705Z" fill="#0E0D05"></path>
<path d="M28.0322 37.2355L26.9713 38.23C27.3691 38.3627 28.3637 38.9594 28.6952 38.4953L27.4354 38.0311L28.0322 37.2355ZM51.5705 37.2355L52.8303 38.23V38.429L51.6368 39.092C52.2336 39.0257 52.764 38.8268 53.2944 38.429C52.8966 37.8322 52.2336 37.3681 51.5705 37.2355Z" fill="black"></path>
<path d="M64.3676 37.3019L64.436 37.3702L64.3676 37.3019Z" fill="#010101"></path>
<path d="M65.8924 37.3019L65.9608 37.3702L65.8924 37.3019Z" fill="#0D0B05"></path>
<path d="M64.3676 37.4351L64.436 37.5034L64.3676 37.4351Z" fill="#0E0D05"></path>
<path d="M22.3963 37.5669C21.8659 38.8267 21.0039 39.8213 20.0093 40.7495C19.4789 41.28 18.6169 41.8104 18.3517 42.5398L22.33 41.6778L24.4518 41.28C23.192 40.418 21.0039 41.4126 19.8104 41.943C20.6061 40.2854 22.2637 39.6224 22.5953 37.6995L22.5289 37.6332L22.3963 37.5669Z" fill="black"></path>
<path d="M39.039 38.4954L39.5694 38.5617V37.6334C39.1716 37.8323 39.1053 38.0975 39.039 38.4954Z" fill="black"></path>
<path d="M64.4339 38.0314L64.5022 38.0998L64.4339 38.0314Z" fill="#010101"></path>
<path d="M43.2827 38.2976L43.349 39.2922C43.7468 39.0933 44.0783 38.7618 44.1446 38.2976L43.4816 38.7618L43.2827 38.2976Z" fill="black"></path>
<path d="M62.5773 38.4294L62.6457 38.4978L62.5773 38.4294Z" fill="#0E0D05"></path>
<path d="M64.3012 38.7609L64.3696 38.8292L64.3012 38.7609Z" fill="#010101"></path>
<path d="M66.3568 38.8928L66.4252 38.9612L66.3568 38.8928Z" fill="#0D0B05"></path>
<path d="M64.1686 39.0259L64.237 39.0942L64.1686 39.0259Z" fill="#010101"></path>
<path d="M30.4856 40.22L30.6846 39.557C30.2867 39.6896 30.0215 39.9548 30.4856 40.22Z" fill="black"></path>
<path d="M63.7045 39.8872L63.7729 39.9556L63.7045 39.8872Z" fill="#010101"></path>
<path d="M63.6382 39.9539L63.7065 40.0223L63.6382 39.9539Z" fill="#0E0D05"></path>
<path d="M46.7305 40.1522L46.6642 41.412L45.8685 40.8816C45.9348 41.412 46.3327 41.6772 46.8631 41.8098L46.9294 40.1522H46.7305V40.1522Z" fill="black"></path>
<path d="M59.1294 40.1522L59.3946 40.2185L59.1294 40.1522Z" fill="#010101"></path>
<path d="M24.3192 42.9384C24.9159 42.9384 27.0377 43.0047 27.3029 42.6068L25.3138 42.3416L26.3746 40.2198C25.7116 40.4188 24.5844 42.3416 24.3192 42.9384ZM31.6791 50.8287C32.3421 50.4308 33.2704 49.2373 33.6019 48.5743C32.8726 48.7732 32.541 49.5026 32.0769 50.033L31.8117 48.1102C33.9334 47.9112 34.8617 45.5906 36.1215 44.1982C36.8509 43.3362 37.8455 43.0047 38.84 42.4742C38.2433 41.8112 37.4476 42.5405 36.9172 42.9384C35.4585 44.0655 34.6628 45.3917 33.403 46.6514L34.1324 44.7286H34.0661C33.6682 45.6569 33.2041 46.7177 32.2758 47.1819L32.6073 45.9221H32.541C32.1432 46.8504 31.7454 47.3145 30.7508 47.3145L31.6791 45.1927H31.6128L30.4193 47.1819L30.0877 47.1156L31.016 45.3916H30.9497C30.4856 46.121 30.0214 47.1819 29.0269 46.9167L29.8225 45.3916C29.3584 45.7232 29.1595 46.5851 28.629 46.7841C28.3638 46.8504 27.8997 46.7178 28.0323 46.3862C28.1649 45.9884 28.8279 45.5243 29.1595 45.1927C30.0877 43.9992 30.8171 42.0101 32.2095 41.2144C33.3367 40.6177 35.0606 41.347 36.3204 41.347C37.0498 41.347 37.8455 41.0818 38.0444 40.3525C37.4476 40.2862 36.9172 40.684 36.3204 40.684C34.7954 40.684 32.2758 39.9546 30.9497 40.9492C29.7562 41.8775 29.6899 43.1373 28.9606 44.3308C28.5627 44.9275 27.966 45.3253 27.4355 45.7232C27.2366 45.8558 26.9051 46.121 26.9714 46.3862C27.0377 46.7841 27.7008 46.983 27.966 47.1156C28.629 47.4471 29.4247 47.646 30.154 47.8449C30.5519 47.9112 31.1486 47.9112 31.4802 48.1765C31.7454 48.6406 31.5465 50.1656 31.6791 50.8287Z" fill="black"></path>
<path d="M63.1076 40.4849L63.1739 40.5512L63.1076 40.4849ZM62.8424 40.6175L62.9087 40.6838L62.8424 40.6175Z" fill="#010101"></path>
<path d="M14.6387 40.6833L14.5724 41.2138L14.9039 40.6833H14.6387Z" fill="black"></path>
<path d="M61.848 43.336C61.6491 42.7393 61.7154 41.9436 61.3176 41.4132C60.7871 40.6838 59.5936 40.7501 58.8643 40.7501C58.5991 40.7501 58.1349 40.7501 57.936 41.0153C57.7371 41.3469 58.1349 42.0762 58.2012 42.4077C58.5328 43.8001 58.8643 45.6567 60.0578 46.585C60.8534 47.1817 62.3785 46.7839 63.0415 46.1208C64.1024 45.1262 64.3676 42.673 63.3067 41.6121C61.9806 40.2197 61.9806 42.673 61.848 43.336Z" fill="url(#paint4_radial)"></path>
<path d="M62.8424 41.2144L62.9108 41.2827L62.8424 41.2144Z" fill="#0E0D08"></path>
<path d="M67.4839 41.3462L67.0198 43.6006L66.6883 44.794L67.3513 45.2582L67.1524 44.4625H67.2187C67.6165 45.4571 68.0807 45.656 69.1416 45.656L68.4785 44.2636C68.8763 44.7277 69.0752 45.4571 69.7383 45.5234L69.0752 44.3299C69.672 44.993 69.9372 45.3908 70.7992 44.993V44.794C69.3405 44.0647 69.1416 41.6114 67.4839 41.3462Z" fill="url(#paint5_radial)"></path>
<path d="M52.8967 42.0092L53.1619 41.3462C52.8304 41.5451 52.6315 41.744 52.8967 42.0092Z" fill="black"></path>
<path d="M66.4894 41.6112L66.5578 41.6796L66.4894 41.6112Z" fill="#0D0B05"></path>
<path d="M40.6301 42.1422L41.6247 43.2031L42.0888 42.1422L41.6247 42.8716L40.6301 42.1422ZM49.8466 42.1422L49.7803 43.5346L48.852 43.0042C48.7857 43.6009 49.714 44.264 50.2444 44.5292L50.0455 42.1422H49.8466Z" fill="black"></path>
<path d="M69.0751 42.8717L69.1435 42.9401L69.0751 42.8717Z" fill="#0E0D08"></path>
<path d="M55.2174 42.9382L55.2837 43.0708L55.2174 42.9382Z" fill="#0F0E07"></path>
<path d="M25.1812 43.6677C24.916 45.0601 23.9214 46.2536 23.0595 47.3145C22.6617 47.845 21.9986 48.3091 21.7997 48.9721C23.3247 48.508 24.9823 46.983 26.64 47.1819C26.2421 46.3862 24.253 47.5134 23.5236 47.646C24.1204 46.7841 24.916 45.9884 25.3139 44.9938C25.5128 44.5297 25.5791 43.9993 25.1812 43.6677Z" fill="black"></path>
<path d="M63.837 44.0657L63.9054 44.134L63.837 44.0657Z" fill="#010101"></path>
<path d="M69.8046 44.0657L69.873 44.134L69.8046 44.0657Z" fill="#0F0E08"></path>
<path d="M45.4705 45.8564C45.0727 45.4585 44.6748 44.9281 44.0781 45.0607L45.802 47.1825L46.2662 44.5303C45.6031 44.5966 45.6031 45.3259 45.4705 45.8564Z" fill="black"></path>
<path d="M68.7437 44.4625L68.812 44.5309L68.7437 44.4625Z" fill="#0F0E07"></path>
<path d="M36.9171 45.3912L36.8508 44.9271H36.5856L36.6519 46.1206C37.1823 46.0543 37.7128 45.0597 37.8454 44.5956L36.9171 45.3912Z" fill="black"></path>
<path d="M63.7045 44.5956L63.7729 44.664L63.7045 44.5956Z" fill="#010101"></path>
<path d="M70.799 44.7941L70.8674 44.8624L70.799 44.7941Z" fill="#0D0B05"></path>
<path d="M66.5558 44.8606L66.6242 44.929L66.5558 44.8606Z" fill="#0E0B05"></path>
<path d="M64.3676 45.0602L64.4339 45.1265L64.3676 45.0602ZM67.2188 45.0602L67.2851 45.1265L67.2188 45.0602Z" fill="#0D0B05"></path>
<path d="M64.3012 45.3251L64.3696 45.3935L64.3012 45.3251Z" fill="#0D0B05"></path>
<path d="M69.2079 45.3251L69.2763 45.3935L69.2079 45.3251Z" fill="#0F0D06"></path>
<path d="M63.3729 45.5234L63.4413 45.5918L63.3729 45.5234Z" fill="#0E0D08"></path>
<path d="M64.6327 45.9215L64.7011 45.9899L64.6327 45.9215Z" fill="#0D0B05"></path>
<path d="M40.2988 46.0546L39.8346 47.2481H39.7683L39.039 46.2535L39.702 48.3752H39.7683C39.9672 47.7122 40.8292 46.585 40.2988 46.0546Z" fill="black"></path>
<path d="M30.6181 46.3196L30.7507 46.3859L30.6181 46.3196Z" fill="#0F0E07"></path>
<path d="M50.112 46.651L50.6424 49.701C50.0457 49.1706 48.2554 46.8499 47.5261 47.7119C49.1837 48.2423 49.913 50.2315 51.3718 51.0934L50.9076 49.3695L50.3772 46.651H50.112Z" fill="black"></path>
<path d="M64.0362 46.651L64.1045 46.7194L64.0362 46.651Z" fill="#0E0B05"></path>
<path d="M63.9035 46.7841L63.9719 46.8524L63.9035 46.7841Z" fill="#0D0B05"></path>
<path d="M54.886 47.3137C54.4219 48.4409 55.5491 49.6344 55.9469 50.6953C54.7534 50.0986 53.6925 49.104 52.3001 49.0377V49.3692C54.3556 49.5681 55.4164 51.6236 57.0078 52.5519C57.0078 50.8279 55.5491 48.9051 55.0186 47.2474L54.886 47.3137Z" fill="black"></path>
<path d="M63.3068 47.3805L63.3752 47.4489L63.3068 47.3805Z" fill="#0E0B05"></path>
<path d="M63.174 47.5135L63.2424 47.5819L63.174 47.5135Z" fill="#0D0B05"></path>
<path d="M63.1077 47.579L63.176 47.6474L63.1077 47.579Z" fill="#0E0B05"></path>
<path d="M36.4531 48.7064L35.79 48.7727C35.9889 49.3032 36.3868 49.701 36.5857 50.2314C36.7846 50.8282 36.652 51.6239 37.2487 51.9554C37.5139 51.2923 38.2433 50.2977 38.0444 49.5684C37.5139 49.8336 37.315 50.3641 37.2487 50.9608H37.1824L36.4531 48.7064Z" fill="black"></path>
<path d="M28.0323 48.7729C28.0323 50.5632 27.7671 52.2208 27.3029 53.9448C27.966 53.9448 28.2975 53.2817 28.629 52.8839C29.2921 51.9556 29.9551 50.961 31.0823 50.4969V50.4306C30.0214 50.298 28.629 51.8893 28.2975 52.8176H28.0986C28.4301 51.5578 28.6953 50.0327 28.1649 48.8393H28.0323V48.7729Z" fill="black"></path>
<path d="M43.4815 50.7623L41.3597 49.3036C41.4924 49.7014 41.7576 49.7678 42.0228 50.033C42.5532 50.5634 43.0174 51.6906 43.813 51.8232L44.0119 48.8395C43.2826 49.171 43.4815 50.0993 43.4815 50.7623Z" fill="black"></path>
<path d="M48.6534 50.5634C47.9903 51.6905 48.9186 54.0112 49.1175 55.271H49.0512C48.5207 54.2101 47.5925 53.3482 46.7968 52.4862C46.6642 52.3536 46.1338 51.5579 45.9348 51.8895C45.7359 52.221 46.7968 53.0167 46.9957 53.2819C47.7251 54.1438 48.3881 55.1384 48.9186 56.0667C49.2501 56.6634 49.5153 57.3928 50.1121 57.7243C49.6479 55.4036 48.9186 52.9503 48.9186 50.5634H48.6534Z" fill="black"></path>
<path d="M18.3517 51.4913L17.3571 54.3425L19.4789 52.8837C19.4126 52.1544 19.0811 51.6902 18.3517 51.4913Z" fill="url(#paint6_radial)"></path>
<path d="M33.4692 52.2207C33.867 53.4805 34.2649 54.5414 34.5301 55.8012C34.6627 56.3979 34.5964 57.1936 35.0605 57.5914C35.591 56.5968 35.7236 55.4697 36.254 54.4751C36.5192 53.8783 36.9834 53.4142 36.8508 52.7511C35.9888 53.149 35.4584 55.1381 35.1931 56.0001C34.6627 54.9392 34.7953 52.8174 33.4692 52.2207Z" fill="black"></path>
<path d="M39.6357 53.1487C40.6966 55.2041 41.4259 57.127 42.0227 59.3151C42.6857 58.9835 42.5531 58.3205 42.5531 57.6574C42.5531 56.1324 43.0835 54.6737 43.0172 53.215C42.6194 53.3476 42.4868 53.8117 42.4205 54.2096C42.2216 55.2041 42.2216 56.1987 42.0227 57.1933C41.4922 56.0661 41.1607 53.3476 39.6357 53.1487Z" fill="black"></path>
<path d="M58.7978 53.8782L58.1348 54.9391L60.1239 55.8673L58.7978 53.8782Z" fill="url(#paint7_radial)"></path>
<path d="M26.0432 57.9224L25.8442 60.7072C26.6399 59.9115 27.966 58.1213 26.0432 57.9224Z" fill="url(#paint8_radial)"></path>
<path d="M49.9795 60.7078C50.311 61.4372 51.1066 62.2328 51.7697 62.697L50.974 60.1774L49.9795 60.7078Z" fill="url(#paint9_radial)"></path>
<path d="M34.5303 64.5531L35.3923 61.6357L34.3314 61.4368L34.2651 62.2324L34.5303 64.5531Z" fill="url(#paint10_radial)"></path>
<path d="M42.0889 62.2332L43.0835 65.1506C43.2824 64.6202 44.0118 62.631 43.4813 62.2332C43.1498 61.8354 42.4868 62.1006 42.0889 62.2332Z" fill="url(#paint11_radial)"></path>
<path d="M51.7695 62.6973L51.9684 62.8962L51.7695 62.6973Z" fill="#0D0B05"></path>
<path d="M61.9805 40.7495C61.6489 40.6832 61.3174 40.418 61.3174 40.1528C61.3174 39.8875 61.5163 39.6223 62.1794 38.8267C62.7098 38.1636 62.6435 38.1636 61.6489 38.9593C60.5217 39.8212 59.7261 40.1528 58.6652 40.1528C58.1348 40.1528 57.7369 40.1528 57.7369 40.1528C57.7369 40.0865 57.8695 39.9538 58.0685 39.8212C58.2674 39.6886 58.8641 38.893 59.4609 38.1636C60.5218 36.7712 61.0522 36.3071 61.7152 36.1082C62.7761 35.7766 64.1685 36.6386 64.5001 37.7658C64.7653 38.8267 63.837 40.5506 62.8424 40.8158C62.6435 40.8821 62.4446 40.9484 62.3783 40.8821C62.2457 40.8158 62.1131 40.7495 61.9805 40.7495Z" fill="#FEF666"></path>
<path d="M60.5217 46.8501C60.1902 46.7838 59.726 46.386 59.3945 45.9218C58.9967 45.3914 58.7314 44.662 58.2673 42.8718C58.0684 42.0761 57.8695 41.4131 57.8695 41.2805C57.7369 40.8164 58.7977 40.5511 60.0575 40.75C61.0521 40.949 61.45 41.2805 61.6489 42.2088C61.7152 42.5403 61.7815 42.8718 61.7815 42.9381C61.7815 43.0044 61.8478 42.7392 61.9804 42.3414C62.0467 41.8772 62.1793 41.4794 62.3782 41.3468L62.5771 41.0816L62.975 41.3468C63.5717 41.7446 63.9033 42.5403 63.9033 43.6012C63.9033 44.9936 63.3065 46.1208 62.3119 46.5849C61.8478 46.7838 60.9195 46.9164 60.5217 46.8501Z" fill="#FEF67A"></path>
</g>
<defs>
<radialGradient id="paint0_radial" cx="0" cy="0" r="1" gradientUnits="userSpaceOnUse" gradientTransform="translate(38.5714 36.0004) rotate(0.126177) scale(28.2858 29.63)">
<stop stop-color="#FFF68E"></stop>
<stop offset="0.731" stop-color="#EED26A"></stop>
<stop offset="1" stop-color="#D6AA4A"></stop>
</radialGradient>
<radialGradient id="paint1_radial" cx="0" cy="0" r="1" gradientUnits="userSpaceOnUse" gradientTransform="translate(55.4927 27.6345) scale(1.10696 0.691961)">
<stop stop-color="#FFF68E"></stop>
<stop offset="0.5" stop-color="#FAEA82"></stop>
<stop offset="1" stop-color="#D6AA4A"></stop>
</radialGradient>
<radialGradient id="paint2_radial" cx="0" cy="0" r="1" gradientUnits="userSpaceOnUse" gradientTransform="translate(62.8544 28.69) scale(0.374308 0.420994)">
<stop stop-color="#FFF68E"></stop>
<stop offset="0.5" stop-color="#FAEA82"></stop>
<stop offset="1" stop-color="#D6AA4A"></stop>
</radialGradient>
<radialGradient id="paint3_radial" cx="0" cy="0" r="1" gradientUnits="userSpaceOnUse" gradientTransform="translate(61.0804 38.3727) scale(1.15268 0.824151)">
<stop stop-color="#FFF68E"></stop>
<stop offset="0.5" stop-color="#FAEA82"></stop>
<stop offset="1" stop-color="#D6AA4A"></stop>
</radialGradient>
<radialGradient id="paint4_radial" cx="0" cy="0" r="1" gradientUnits="userSpaceOnUse" gradientTransform="translate(60.7712 43.8138) scale(1.03964 1.04459)">
<stop stop-color="#FFF68E"></stop>
<stop offset="0.5" stop-color="#FAEA82"></stop>
<stop offset="1" stop-color="#D6AA4A"></stop>
</radialGradient>
<radialGradient id="paint5_radial" cx="0" cy="0" r="1" gradientUnits="userSpaceOnUse" gradientTransform="translate(60.5292 47.8084) scale(10.1801 10.3698)">
<stop stop-color="#FFF68E"></stop>
<stop offset="0.5" stop-color="#FAEA82"></stop>
<stop offset="1" stop-color="#D6AA4A"></stop>
</radialGradient>
<radialGradient id="paint6_radial" cx="0" cy="0" r="1" gradientUnits="userSpaceOnUse" gradientTransform="translate(18.4904 52.9066) scale(0.358601 0.483331)">
<stop stop-color="#FFF68E"></stop>
<stop offset="0.5" stop-color="#FAEA82"></stop>
<stop offset="1" stop-color="#D6AA4A"></stop>
</radialGradient>
<radialGradient id="paint7_radial" cx="0" cy="0" r="1" gradientUnits="userSpaceOnUse" gradientTransform="translate(59.2748 54.9404) scale(0.343038)">
<stop stop-color="#FFF68E"></stop>
<stop offset="0.5" stop-color="#FAEA82"></stop>
<stop offset="1" stop-color="#D6AA4A"></stop>
</radialGradient>
<radialGradient id="paint8_radial" cx="0" cy="0" r="1" gradientUnits="userSpaceOnUse" gradientTransform="translate(26.5441 59.353) scale(0.204427 0.483296)">
<stop stop-color="#FFF68E"></stop>
<stop offset="0.5" stop-color="#FAEA82"></stop>
<stop offset="1" stop-color="#D6AA4A"></stop>
</radialGradient>
<radialGradient id="paint9_radial" cx="0" cy="0" r="1" gradientUnits="userSpaceOnUse" gradientTransform="translate(50.6593 61.3252) scale(0.311769 0.436517)">
<stop stop-color="#FFF68E"></stop>
<stop offset="0.5" stop-color="#FAEA82"></stop>
<stop offset="1" stop-color="#D6AA4A"></stop>
</radialGradient>
<radialGradient id="paint10_radial" cx="0" cy="0" r="1" gradientUnits="userSpaceOnUse" gradientTransform="translate(34.4981 63.0681) scale(0.187025 0.529043)">
<stop stop-color="#FFF68E"></stop>
<stop offset="0.5" stop-color="#FAEA82"></stop>
<stop offset="1" stop-color="#D6AA4A"></stop>
</radialGradient>
<radialGradient id="paint11_radial" cx="0" cy="0" r="1" gradientUnits="userSpaceOnUse" gradientTransform="translate(42.9109 63.5298) scale(0.274024 0.532329)">
<stop stop-color="#FFF68E"></stop>
<stop offset="0.5" stop-color="#FAEA82"></stop>
<stop offset="1" stop-color="#D6AA4A"></stop>
</radialGradient>
<clipPath id="clip0">
<rect width="72" height="62.3774" fill="white" transform="translate(0 5.14282)"></rect>
</clipPath>
</defs>
</svg>