<svg class="icon-sm" version="1.1" xmlns="http://www.w3.org/2000/svg" xmlns:xlink="http://www.w3.org/1999/xlink" x="0px" y="0px" viewBox="0 0 48 48" style="enable-background:new 0 0 48 48;" xml:space="preserve">
  <style type="text/css">
    .icon-sm .fill-gradient {
      fill: #cadefe;
      stroke: #b2b9ce;
      stroke-width: 1;
    }

    .icon-sm .fill-primary.stroke-primary {
      stroke-width: 1;
    }

    .icon-sm .stroke-primary,
    .icon-sm .stroke-primary-l {
      stroke: #007bfc;
    }

    .icon-sm .fill-primary {
      fill: #007bfc;
    }

    .icon-sm .stroke-dark {
      stroke: #142149;
    }

    .icon-sm .fill-primary {
      fill: #007bfc;
    }

    .icon-sm>* {
      fill: none;
    }

    .st0 {
      fill: url(#infinite-os-combination-gradient-1);
      stroke: url(#infinite-os-combination-gradient-2);
    }

    .st1 {
      fill-rule: evenodd;
      clip-rule: evenodd;
      fill: #1062FE;
      stroke: #1062FE;
      stroke-linecap: round;
      stroke-linejoin: round;
    }

    .st2 {
      fill: none;
      stroke: #393D45;
      stroke-linecap: round;
      stroke-linejoin: round;
    }

    .st3 {
      fill-rule: evenodd;
      clip-rule: evenodd;
      fill: #1062FE;
    }
  </style>

  <linearGradient id="infinite-os-combination-gradient-1" gradientUnits="userSpaceOnUse" x1="4.5357" y1="-861.5" x2="25.5" y2="-861.5" gradientTransform="matrix(1 0 0 -1 0 -852)">
    <stop offset="0" style="stop-color:#B2CFFD"></stop>
    <stop offset="1" style="stop-color:#D3E3FE"></stop>
  </linearGradient>
  <linearGradient id="infinite-os-combination-gradient-2" gradientUnits="userSpaceOnUse" x1="4.0357" y1="-861.5" x2="26" y2="-861.5" gradientTransform="matrix(1 0 0 -1 0 -852)">
    <stop offset="0" style="stop-color:#B2CFFD"></stop>
    <stop offset="1" style="stop-color:#D3E3FE"></stop>
  </linearGradient>

  <path id="Kształt_1_kopia_2" class="st0" d="M16.5,17.3c-3.2,1.6-7,1.6-10.2,0l0,0c-2.2-1.3-2.5-4.1,0-5.9L25.5,0.5v11.8L16.5,17.3
	z"></path>
  <path id="Kształt_1_kopia_2-2" class="st1" d="M43.2,13c0.6-1.5,0-3.2-1.7-4.2c-3.2-1.6-7-1.6-10.2,0c0,0-13.7,8.4-15.1,9.1
	c-2.2,1-4.8,1.2-7.2,0.6c-5-1.5-4.5-4-4.5-4v20c0.2,1.2,0.8,2.2,1.8,2.9c3.2,1.6,7,1.6,10.2,0l2.6-1.5L19,27.4L43.2,13z"></path>
  <path id="Kształt_1_kopia_2-3" class="st2" d="M43.5,32.4v-20l0,0c-0.4,1-1.1,1.8-2,2.3l-22,12.9v19.9l22-12.9
	C43.3,33.5,43.5,32.4,43.5,32.4z"></path>
  <path class="st3" d="M34.4,29.4c-0.7,0-1.2-0.3-1.3-1c0-0.5-0.1-1.5,1.1-2.9c1.3-1.3,2.3-1.6,2.8-1.6c1-0.1,1.2,1,1.2,1.4l-1.6,0.9
	c0-0.2-0.1-0.5-0.3-0.6s-0.5,0-0.7,0.1c-0.8,0.4-1,1-1,1.3c0,0.8,1,0.4,1.4,0.3c1.5-0.5,2.2,0.4,2.2,1.3c0,0.7-0.2,1.3-0.7,2
	s-1.1,1.2-1.8,1.6c-0.5,0.3-1,0.5-1.5,0.5s-0.7-0.1-1-0.4c-0.2-0.3-0.4-0.8-0.3-1.2l1.6-0.9c0,0.3,0.1,0.6,0.3,0.8
	c0.3,0.2,0.6,0.2,1.1-0.1c0.6-0.4,0.7-0.9,0.7-1.1C36.6,28.7,35.6,29.4,34.4,29.4z"></path>
  <path class="st3" d="M31.9,30.5c0-0.5-0.1-1.3-0.4-1.8c-0.2-0.4-0.7-0.7-1.1-0.7c-0.6,0-1.5,0-3,1.8c-1.1,1.4-1.4,3.4-1.4,4.2
	s0,1.4,0.4,2.2c0.6,1.3,2.2,0.7,2.6,0.4c0.7-0.4,1.3-1.1,1.7-1.7C31.6,33.4,31.8,32,31.9,30.5z M30.2,32.1c-0.1,1.8-0.6,2.7-1.6,3.1
	c-1,0.2-1.1-1.4-1-2.5c0.1-1.6,0.6-2.4,1.3-2.8C30.2,29.1,30.3,31.3,30.2,32.1z"></path>
</svg>