<svg class="icon-sm" xmlns="http://www.w3.org/2000/svg" x="0px" y="0px" viewBox="0 0 48 48">
<style type="text/css">
    .icon-sm .fill-gradient {
      fill: #cadefe;
      stroke: #b2b9ce;
      stroke-width: 1;
    }

    .icon-sm .fill-primary.stroke-primary {
      stroke-width: 1;
    }

    .icon-sm .stroke-primary,
    .icon-sm .stroke-primary-l {
      stroke: #007bfc;
    }

    .icon-sm .fill-primary {
      fill: #007bfc;
    }

    .icon-sm .stroke-dark {
      stroke: #142149;
    }

    .icon-sm .fill-primary {
      fill: #007bfc;
    }

    .icon-sm>* {
      fill: none;
    }

    .st0 {
      fill: url(#infinite-os-combination-gradient-1);
      stroke: url(#infinite-os-combination-gradient-2);
    }

    .st1 {
      fill-rule: evenodd;
      clip-rule: evenodd;
      fill: #1062FE;
      stroke: #1062FE;
      stroke-linecap: round;
      stroke-linejoin: round;
    }

    .st2 {
      fill: none;
      stroke: #393D45;
      stroke-linecap: round;
      stroke-linejoin: round;
    }

    .st3 {
      fill-rule: evenodd;
      clip-rule: evenodd;
      fill: #1062FE;
    }
  </style>
  <polygon class="fill-gradient" points="4.5,36.2 24,47.5 43.5,36.3 36.2,32.1 24,38.8 11.8,32 "></polygon>
  <polygon class="fill-primary stroke-primary" points="43.5,28 24,39.3 4.5,28 4.5,21.9 11,21.9 24,29.3 37.2,21.9 43.5,22 "></polygon>
  <polygon class="fill-primary-l stroke-primary-l" points="4.5,21.7 24,33 43.5,21.8 40.4,20 24,29.3 7.7,19.9 "></polygon>
  <polyline class="stroke-dark" points="43.5,12 43.5,18 24,29.3 4.5,18 4.5,11.9 "></polyline>
  <polygon class="stroke-dark" points="4.5,11.7 24,23 43.5,11.8 24,0.5 "></polygon>
  <path class="stroke-primary stroke-1-5" d="M29.8,11.9l0.7,3.8l-6.7-0.4 M23.4,8.2l-6.6-0.4l0.7,3.9 M18.9,13.5l10.2-3.6"></path>
</svg>