<svg width="72" height="72" viewBox="0 0 72 72" fill="none" xmlns="http://www.w3.org/2000/svg">
<path d="M31.181 62.9547V51.1835C31.9415 51.7319 32.6664 52.4378 33.5279 52.845C37.3899 54.6654 41.3558 54.762 45.1034 52.7231C50.6751 49.6915 54.3573 45.0877 55.2901 38.6798C56.1427 32.8187 54.3737 27.7066 50.2814 23.4178C48.1217 21.1545 45.6768 19.2999 42.5976 18.49C39.6788 17.7217 36.8046 17.8956 34.0374 19.1811C32.8758 19.722 31.9341 20.5572 31.0815 21.6375C30.6685 19.3267 29.1505 18.4068 27.0917 18.1527C25.3776 17.9417 23.662 17.8332 21.9716 18.3013C20.2813 18.7694 19.2088 20.1396 19.1316 21.902C19.0855 22.9289 19.0529 23.9573 19.0529 24.9856C19.0469 37.3695 19.0469 49.75 19.0529 62.1269C19.0529 62.9933 19.0529 62.9933 18.1869 62.9948C17.416 62.9948 16.6451 62.9948 15.8742 62.9948C11.7909 62.9814 9.02212 60.2337 9.00726 56.1485C8.99092 52.1361 9.00726 48.1237 9.00726 44.1039C9.00726 34.7298 9.00726 25.3552 9.00726 15.9801C9.00726 14.2414 9.41722 12.6528 10.5699 11.3108C11.9483 9.7044 13.7322 9 15.8162 9C29.2837 9 42.7481 9.00248 56.2096 9.00743C59.626 9.00743 62.1719 11.0493 62.8463 14.228C62.9499 14.7515 62.9997 15.2844 62.9948 15.8181C63.0017 29.267 63.0017 42.7159 62.9948 56.1648C62.9948 59.5962 60.9598 62.1775 57.7618 62.8521C57.2373 62.9542 56.7037 63.002 56.1695 62.9948C48.0831 63.0017 39.9962 63.0017 31.9088 62.9948C31.6726 62.9948 31.4409 62.968 31.181 62.9547Z" fill="#2E4153"></path>
<path d="M37.3418 30.1505C41.1042 30.051 43.4318 33.4496 43.3962 36.1498C43.3576 39.379 40.5086 42.155 37.1932 42.1163C33.9789 42.0807 31.3854 39.3835 31.4225 36.126C31.4522 33.4347 33.56 30.0361 37.3418 30.1505Z" fill="#2E4153"></path>
</svg>