<svg class="icon-sm" xmlns="http://www.w3.org/2000/svg" x="0px" y="0px" viewBox="0 0 48 48">
  <style type="text/css">
    .icon-sm .fill-gradient {
      fill: #cadefe;
      stroke: #b2b9ce;
      stroke-width: 1;
    }

    .icon-sm .fill-primary.stroke-primary {
      stroke-width: 1;
    }

    .icon-sm .stroke-primary,
    .icon-sm .stroke-primary-l {
      stroke: #007bfc;
    }

    .icon-sm .fill-primary {
      fill: #007bfc;
    }

    .icon-sm .stroke-dark {
      stroke: #142149;
    }

    .icon-sm .fill-primary {
      fill: #007bfc;
    }

    .icon-sm>* {
      fill: none;
    }

    .st0 {
      fill: url(#infinite-os-combination-gradient-1);
      stroke: url(#infinite-os-combination-gradient-2);
    }

    .st1 {
      fill-rule: evenodd;
      clip-rule: evenodd;
      fill: #1062FE;
      stroke: #1062FE;
      stroke-linecap: round;
      stroke-linejoin: round;
    }

    .st2 {
      fill: none;
      stroke: #393D45;
      stroke-linecap: round;
      stroke-linejoin: round;
    }

    .st3 {
      fill-rule: evenodd;
      clip-rule: evenodd;
      fill: #1062FE;
    }
  </style>
  <polygon class="fill-gradient" points="2.5,41 8.6,37.7 8.6,17.4 27.3,7 27.3,0.5 2.5,14.4"></polygon>
  <polygon class="fill-primary stroke-primary" points="8.4,44 14.2,40.5 14.3,20.9 32.5,10.3 32.6,3.6 8.4,17.5"></polygon>
  <polygon class="stroke-dark" points="14.5,47.5 27.1,40 27.4,39.8 38.5,33.5 38.5,7 14.5,20.9 "></polygon>
  <line class="stroke-primary stroke-1-5" x1="33.2" y1="26.5" x2="27.4" y2="29.9"></line>
  <polyline class="stroke-primary" points="20.7,25.5 25,27.1 20.6,33.8"></polyline>
  <path class="fill-primary stroke-primary" d="M41,39.4L31.5,45C29,46.5,27,45.3,27,42.3v-1.5c0.1-3.2,1.7-6.1,4.4-7.9l9.4-5.6c2.5-1.5,4.5-0.3,4.5,2.7v1.5C45.2,34.6,43.6,37.6,41,39.4z"></path>
  <path class="fill-white" d="M35.7,35.7c-0.3-1.6-1.6-2.2-3.2-1.2c-1.9,1.2-3.1,3.3-3.3,5.6c0,2.1,1.5,2.9,3.3,1.9c1.6-1.1,2.7-2.7,3.1-4.6l4.7-2.7v1.9l1.7-1v-1.9l1.3-0.8v-1.7L35.7,35.7z M32.5,40.1c-0.9,0.5-1.7,0.1-1.7-1c0.1-1.2,0.7-2.2,1.7-2.9c0.9-0.5,1.7-0.1,1.7,1C34.1,38.4,33.5,39.4,32.5,40.1z"></path>

</svg>