<?xml version="1.0" encoding="utf-8"?>
<!-- Generator: Adobe Illustrator 25.2.0, SVG Export Plug-In . SVG Version: 6.00 Build 0)  -->
<svg version="1.1" id="Warstwa_1" xmlns="http://www.w3.org/2000/svg" xmlns:xlink="http://www.w3.org/1999/xlink" x="0px" y="0px"
	 viewBox="0 0 28 28" enable-background="new 0 0 28 28" xml:space="preserve">
<path id="Kształt_511" fill-rule="evenodd" clip-rule="evenodd" fill="#FFFFFF" d="M24.7,8.5c0,0.2,0,0.5,0,0.7
	c0.1,8.6-6.9,15.6-15.5,15.7c-0.1,0-0.1,0-0.2,0l0,0c-3,0-5.9-0.9-8.4-2.5c0.4,0.1,0.9,0.1,1.3,0.1c2.5,0,4.9-0.8,6.8-2.4
	c-2.4,0-4.4-1.6-5.2-3.8c0.8,0.2,1.7,0.1,2.5-0.1c-2.6-0.5-4.4-2.8-4.4-5.4v-0.1c0.8,0.4,1.6,0.7,2.5,0.7C1.7,9.8,1,6.6,2.4,4.1
	c2.8,3.4,6.9,5.5,11.4,5.7c-0.7-3,1.2-5.9,4.1-6.6c1.9-0.4,3.9,0.2,5.3,1.6c1.2-0.2,2.4-0.7,3.5-1.3c-0.4,1.3-1.3,2.4-2.4,3
	c1.1-0.1,2.2-0.4,3.2-0.9C26.7,6.8,25.8,7.8,24.7,8.5z"/>
</svg>
