<svg width="72" height="72" viewBox="0 0 72 72" fill="none" xmlns="http://www.w3.org/2000/svg">
<path d="M10.6311 35.9958C10.6311 46.0371 16.4666 54.7147 24.9284 58.8269L12.8274 25.6716C11.4198 28.8266 10.6311 32.318 10.6311 35.9958V35.9958Z" fill="#0E7499"></path>
<path d="M53.1258 34.7232C53.1258 31.5881 51.9996 29.4168 51.0337 27.7269C49.7478 25.6372 48.5425 23.8676 48.5425 21.778C48.5425 19.446 50.3111 17.2753 52.8024 17.2753C52.9148 17.2753 53.0215 17.2893 53.1311 17.2955C48.6178 13.1607 42.6047 10.6361 36.0003 10.6361C27.1378 10.6361 19.3406 15.1832 14.8046 22.0705C15.3997 22.0884 15.9607 22.1009 16.4371 22.1009C19.0905 22.1009 23.1979 21.7789 23.1979 21.7789C24.5654 21.6983 24.7266 23.7069 23.3606 23.8686C23.3606 23.8686 21.9863 24.0303 20.4571 24.1104L29.6951 51.5886L35.2468 34.9385L31.2944 24.1095C29.9283 24.0293 28.6341 23.8676 28.6341 23.8676C27.2671 23.7875 27.4274 21.6974 28.7944 21.778C28.7944 21.778 32.9838 22.0999 35.4765 22.0999C38.1295 22.0999 42.2373 21.778 42.2373 21.778C43.6058 21.6974 43.7666 23.7059 42.4 23.8676C42.4 23.8676 41.0228 24.0293 39.4965 24.1095L48.6641 51.3796L51.1945 42.924C52.2912 39.4152 53.1258 36.895 53.1258 34.7232V34.7232Z" fill="#0E7499"></path>
<path d="M36.4445 38.2136L28.8331 60.3308C31.1057 60.9989 33.5091 61.3643 35.9994 61.3643C38.9536 61.3643 41.7866 60.8536 44.4236 59.9263C44.3556 59.8177 44.2938 59.7023 44.2431 59.5768L36.4445 38.2136Z" fill="#0E7499"></path>
<path d="M58.2586 23.8271C58.3677 24.6352 58.4295 25.5026 58.4295 26.4357C58.4295 29.01 57.9487 31.9038 56.5006 35.5222L48.7517 57.9261C56.2935 53.5282 61.3663 45.3574 61.3663 35.9986C61.3668 31.5881 60.2402 27.4407 58.2586 23.8271V23.8271Z" fill="#0E7499"></path>
<path d="M36.0003 6.42859C19.6949 6.42859 6.42859 19.6939 6.42859 35.9993C6.42859 52.3066 19.6949 65.5714 36.0003 65.5714C52.3052 65.5714 65.5734 52.3066 65.5734 35.9993C65.5729 19.6939 52.3052 6.42859 36.0003 6.42859ZM36.0003 64.216C20.4426 64.216 7.78452 51.5579 7.78452 35.9993C7.78452 20.4416 20.4421 7.78452 36.0003 7.78452C51.5575 7.78452 64.2145 20.4416 64.2145 35.9993C64.2145 51.5579 51.5575 64.216 36.0003 64.216Z" fill="#0E7499"></path>
</svg>